<svg xmlns="http://www.w3.org/2000/svg" xmlns:xlink="http://www.w3.org/1999/xlink" width="500" zoomAndPan="magnify" viewBox="0 0 375 262.499992" height="350" preserveAspectRatio="xMidYMid meet" version="1.0"><defs><g/><clipPath id="aaf7baaf13"><path d="M 0.355469 0 L 374.640625 0 L 374.640625 262 L 0.355469 262 Z M 0.355469 0 " clip-rule="nonzero"/></clipPath><clipPath id="cec8c9d31e"><path d="M 12 56.414062 L 362.96875 56.414062 L 362.96875 206 L 12 206 Z M 12 56.414062 " clip-rule="nonzero"/></clipPath><clipPath id="52542bda27"><path d="M 161.972656 79 L 182 79 L 182 85.699219 L 161.972656 85.699219 Z M 161.972656 79 " clip-rule="nonzero"/></clipPath><clipPath id="f77bc770a4"><path d="M 188 0 L 262.28125 0 L 262.28125 53 L 188 53 Z M 188 0 " clip-rule="nonzero"/></clipPath><clipPath id="afed58c54f"><path d="M 270 7.3125 L 299 7.3125 L 299 34 L 270 34 Z M 270 7.3125 " clip-rule="nonzero"/></clipPath><clipPath id="dae55f86c9"><path d="M 0.355469 198 L 374.640625 198 L 374.640625 246 L 0.355469 246 Z M 0.355469 198 " clip-rule="nonzero"/></clipPath></defs><g clip-path="url(#aaf7baaf13)"><path fill="#ffffff" d="M 0.355469 0 L 374.644531 0 L 374.644531 262 L 0.355469 262 Z M 0.355469 0 " fill-opacity="1" fill-rule="nonzero"/><path fill="#ffffff" d="M 0.355469 0 L 374.644531 0 L 374.644531 262 L 0.355469 262 Z M 0.355469 0 " fill-opacity="1" fill-rule="nonzero"/></g><g clip-path="url(#cec8c9d31e)"><path fill="#3fc742" d="M 277.4375 205.839844 C 275 205.839844 272.5625 204.164062 271.269531 202.03125 C 269.972656 199.972656 269.515625 197.613281 269.058594 195.328125 C 268.90625 194.71875 268.753906 194.035156 268.601562 193.425781 C 267.765625 189.84375 266.316406 187.558594 264.335938 186.417969 C 263.347656 185.808594 262.207031 185.578125 260.988281 185.273438 C 259.539062 184.96875 258.09375 184.589844 256.796875 183.753906 C 252.839844 180.933594 253.597656 175.144531 254.4375 171.035156 C 254.4375 170.882812 254.589844 170.730469 254.742188 170.652344 C 260.226562 167.53125 267.078125 167.226562 272.867188 169.738281 C 273.171875 167.300781 272.03125 164.710938 270.050781 163.339844 C 268.679688 162.429688 267.078125 162.046875 265.328125 161.589844 C 264.335938 161.363281 263.273438 161.132812 262.28125 160.753906 C 260.148438 159.914062 258.703125 158.621094 257.179688 157.171875 L 256.875 156.867188 C 256.492188 156.488281 256.035156 156.183594 255.65625 155.878906 C 254.359375 154.886719 253.066406 153.898438 253.066406 151.765625 C 253.066406 150.777344 253.066406 149.710938 253.371094 148.644531 L 253.523438 148.035156 C 255.199219 142.703125 256.339844 138.894531 254.207031 133.335938 C 252.152344 128.082031 246.363281 123.359375 240.195312 124.425781 C 238.902344 124.652344 237.683594 125.1875 236.617188 125.949219 C 236.769531 126.101562 236.84375 126.328125 236.996094 126.480469 C 239.433594 130.136719 241.644531 134.324219 239.738281 138.058594 C 239.664062 138.210938 239.511719 138.363281 239.28125 138.363281 C 237.53125 138.589844 235.777344 137.980469 234.40625 136.609375 C 232.808594 135.085938 231.96875 132.878906 232.199219 130.820312 C 232.425781 128.84375 233.492188 127.015625 235.09375 125.644531 C 232.882812 122.367188 230.523438 119.019531 227.402344 116.429688 C 226.03125 115.285156 224.582031 114.449219 222.984375 113.535156 C 222.070312 113 221.078125 112.46875 220.167969 111.78125 C 219.710938 111.476562 219.101562 111.402344 218.796875 111.476562 C 218.644531 111.554688 218.566406 111.628906 218.566406 111.707031 C 218.339844 112.390625 219.40625 113.6875 220.242188 114.675781 C 220.773438 115.285156 221.15625 115.820312 221.382812 116.199219 C 221.765625 116.960938 221.765625 117.800781 221.308594 118.5625 C 220.851562 119.550781 219.785156 120.386719 218.71875 120.691406 C 217.121094 121.074219 215.519531 120.617188 214.226562 120.082031 C 213.082031 125.1875 211.484375 130.289062 206.535156 132.953125 C 205.925781 133.335938 205.164062 133.5625 204.554688 133.792969 C 202.953125 134.324219 201.507812 134.859375 201.355469 136.535156 C 201.277344 137.601562 201.886719 138.589844 202.496094 139.582031 C 203.488281 141.105469 204.554688 142.855469 203.410156 145.140625 C 202.726562 146.511719 201.355469 147.273438 200.136719 147.957031 L 199.753906 148.1875 C 195.566406 150.546875 194.195312 153.136719 191.988281 157.402344 L 191.683594 158.011719 C 190.007812 160.675781 186.277344 161.132812 183.6875 160.144531 C 180.945312 159.152344 178.886719 157.019531 177.0625 155.117188 L 174.320312 152.296875 C 173.632812 151.539062 172.71875 150.699219 172.414062 149.480469 C 172.1875 148.414062 172.414062 147.347656 172.644531 146.433594 L 172.71875 146.28125 C 174.089844 140.265625 173.558594 134.78125 171.121094 130.746094 C 168.605469 126.558594 162.894531 123.359375 157.792969 125.339844 L 157.410156 125.492188 C 156.34375 125.949219 154.976562 126.480469 153.832031 125.71875 C 153.222656 125.339844 152.917969 124.804688 152.613281 124.273438 C 152.460938 124.042969 152.386719 123.816406 152.234375 123.664062 C 151.546875 122.824219 150.480469 122.367188 149.261719 121.910156 C 147.738281 121.378906 146.214844 120.769531 145.53125 119.246094 C 145.148438 118.484375 145.148438 117.648438 145.148438 116.808594 C 145.148438 116.582031 145.148438 116.351562 145.148438 116.046875 C 145.074219 115.058594 144.84375 114.066406 144.539062 113.078125 C 144.238281 112.011719 143.933594 110.867188 143.855469 109.648438 C 143.628906 105.003906 147.359375 101.273438 151.089844 99.519531 C 154.441406 97.996094 158.25 97.617188 161.828125 97.238281 C 162.363281 97.160156 162.894531 97.160156 163.503906 97.085938 C 166.171875 96.78125 168.757812 96.398438 171.425781 95.941406 C 170.816406 95.484375 170.207031 95.105469 169.597656 94.722656 C 167.082031 93.125 164.417969 91.828125 161.753906 90.535156 C 159.390625 89.390625 157.03125 88.25 154.746094 86.878906 C 153.527344 86.117188 152.308594 85.28125 151.851562 83.832031 C 151.242188 81.851562 152.539062 79.71875 155.429688 77.816406 C 157.410156 76.519531 159.542969 75.304688 161.675781 74.238281 C 161.523438 74.160156 161.371094 74.085938 161.21875 73.933594 C 157.945312 71.953125 153.605469 71.191406 149.796875 70.582031 C 149.109375 70.503906 148.5 70.351562 147.890625 70.277344 C 137.6875 68.449219 126.71875 73.09375 119.332031 82.539062 L 118.953125 82.996094 C 117.960938 84.289062 116.894531 85.660156 115.296875 86.421875 C 113.925781 87.105469 112.402344 87.183594 111.109375 87.105469 C 107.070312 87.105469 102.957031 86.195312 99.226562 84.519531 C 98.542969 84.214844 97.855469 83.832031 97.171875 83.527344 C 95.191406 82.539062 93.363281 81.625 91.304688 81.320312 C 86.8125 80.785156 82.394531 83.375 77.980469 86.269531 C 77.371094 86.652344 76.683594 87.105469 76.378906 87.792969 C 76.226562 88.097656 76.226562 88.476562 76.378906 88.78125 C 76.457031 88.933594 76.53125 89.085938 76.761719 89.164062 C 77.140625 89.316406 77.675781 89.011719 78.207031 88.78125 C 81.101562 87.183594 84.300781 85.738281 87.652344 86.195312 C 89.632812 86.5 91.535156 87.640625 92.675781 89.316406 C 93.589844 90.609375 93.894531 92.132812 93.515625 93.503906 C 93.285156 94.34375 92.90625 95.105469 92.523438 95.789062 C 91.914062 96.933594 91.457031 97.84375 91.609375 98.835938 L 101.890625 97.769531 C 103.492188 97.617188 105.777344 97.84375 106.996094 98.988281 C 107.527344 99.519531 107.832031 100.207031 107.757812 100.96875 C 107.679688 102.1875 106.765625 103.253906 105.015625 104.167969 C 103.109375 105.082031 101.128906 105.691406 99.226562 106.300781 C 97.933594 106.679688 96.5625 107.136719 95.34375 107.59375 C 91.535156 109.039062 89.097656 111.097656 87.957031 113.609375 C 87.5 114.675781 87.195312 115.894531 86.964844 117.113281 C 86.585938 119.019531 86.128906 121.074219 84.757812 122.597656 C 83.003906 124.578125 80.261719 125.109375 77.675781 125.566406 C 74.78125 126.101562 72.039062 126.632812 71.046875 128.996094 C 70.589844 130.0625 70.589844 131.429688 70.589844 132.726562 L 83.917969 133.410156 C 87.726562 133.640625 91.535156 133.488281 95.648438 133.105469 C 97.246094 132.953125 98.542969 132.421875 99.988281 131.886719 C 101.207031 131.429688 102.5 130.898438 103.949219 130.667969 C 107.679688 130.0625 110.652344 132.191406 113.542969 134.171875 C 115.523438 135.542969 117.582031 136.992188 119.867188 137.449219 C 121.238281 137.753906 122.761719 137.675781 124.28125 137.675781 C 127.175781 137.601562 130.222656 137.523438 132.203125 139.808594 C 134.5625 142.550781 133.421875 146.816406 131.289062 149.558594 C 130.527344 150.546875 129.613281 151.539062 128.699219 152.375 C 127.253906 153.820312 125.957031 155.269531 125.042969 156.945312 C 124.054688 158.847656 123.75 161.132812 123.445312 163.265625 L 120.246094 185.808594 C 120.246094 186.035156 120.019531 186.265625 119.714844 186.265625 C 116.820312 186.570312 113.847656 186.265625 111.109375 185.351562 C 110.195312 185.046875 109.203125 184.589844 108.59375 183.753906 C 108.136719 183.066406 107.984375 182.230469 107.910156 181.46875 C 107.375 176.898438 107.300781 172.253906 107.757812 167.683594 L 107.757812 167.53125 C 107.910156 166.3125 107.984375 165.09375 107.527344 164.101562 C 107.148438 163.1875 106.308594 162.429688 105.546875 161.820312 L 90.773438 148.949219 C 89.328125 147.652344 87.878906 146.359375 86.128906 145.597656 C 81.558594 143.464844 76.304688 144.910156 71.199219 146.28125 C 70.4375 146.511719 69.601562 146.738281 68.839844 146.890625 C 63.507812 148.261719 45.535156 152.148438 36.089844 143.691406 C 35.710938 143.386719 35.40625 143.007812 35.027344 142.625 C 34.570312 142.167969 34.113281 141.710938 33.65625 141.332031 C 33.046875 140.875 32.359375 140.570312 31.597656 140.265625 C 30.683594 139.886719 29.769531 139.503906 29.007812 138.894531 C 28.78125 138.667969 28.78125 138.363281 28.933594 138.058594 C 29.160156 137.828125 29.464844 137.828125 29.769531 137.980469 C 30.378906 138.515625 31.21875 138.820312 32.054688 139.199219 C 32.816406 139.503906 33.65625 139.808594 34.339844 140.34375 C 34.949219 140.800781 35.40625 141.257812 35.863281 141.789062 C 36.167969 142.167969 36.472656 142.472656 36.851562 142.777344 C 45.839844 150.777344 63.433594 147.042969 68.535156 145.671875 C 69.296875 145.445312 70.132812 145.214844 70.894531 145.0625 C 76.152344 143.617188 81.632812 142.09375 86.585938 144.378906 C 88.488281 145.292969 90.011719 146.585938 91.535156 147.957031 L 106.308594 160.828125 C 107.148438 161.589844 108.0625 162.351562 108.59375 163.570312 C 109.128906 164.863281 108.976562 166.3125 108.898438 167.605469 L 108.898438 167.757812 C 108.441406 172.253906 108.519531 176.820312 109.050781 181.316406 C 109.128906 182 109.203125 182.609375 109.585938 183.144531 C 110.042969 183.753906 110.804688 184.058594 111.566406 184.363281 C 114 185.199219 116.667969 185.503906 119.257812 185.273438 L 122.378906 163.1875 C 122.683594 161.058594 123.0625 158.621094 124.128906 156.488281 C 125.121094 154.582031 126.566406 153.058594 127.9375 151.613281 C 128.777344 150.699219 129.691406 149.863281 130.375 148.871094 C 132.28125 146.433594 133.195312 142.777344 131.367188 140.570312 C 129.765625 138.742188 127.101562 138.742188 124.359375 138.820312 C 122.835938 138.820312 121.160156 138.894531 119.714844 138.589844 C 117.199219 138.058594 115.066406 136.609375 112.933594 135.085938 C 110.117188 133.105469 107.453125 131.277344 104.175781 131.734375 C 102.804688 131.964844 101.664062 132.421875 100.445312 132.878906 C 99 133.410156 97.550781 134.019531 95.800781 134.171875 C 91.609375 134.554688 87.726562 134.628906 83.917969 134.476562 L 70.589844 133.792969 C 70.515625 135.46875 70.285156 137.066406 68.914062 138.132812 C 67.242188 139.351562 64.957031 138.894531 63.507812 138.058594 C 62.671875 137.601562 62.136719 136.992188 61.910156 136.382812 C 61.375 135.011719 62.367188 133.488281 63.585938 132.953125 C 64.726562 132.421875 66.097656 132.496094 67.164062 132.496094 L 69.449219 132.648438 C 69.449219 131.277344 69.449219 129.832031 70.058594 128.539062 C 71.351562 125.644531 74.476562 125.035156 77.523438 124.425781 C 79.957031 123.96875 82.472656 123.433594 83.996094 121.757812 C 85.136719 120.464844 85.519531 118.714844 85.898438 116.808594 C 86.128906 115.589844 86.433594 114.296875 86.964844 113.078125 C 88.261719 110.257812 90.925781 107.976562 95.039062 106.453125 C 96.332031 105.917969 97.703125 105.539062 99 105.15625 C 100.902344 104.546875 102.882812 104.015625 104.632812 103.101562 C 105.546875 102.644531 106.691406 101.882812 106.765625 100.890625 C 106.765625 100.433594 106.613281 100.128906 106.308594 99.824219 C 105.472656 98.988281 103.566406 98.757812 102.121094 98.910156 L 91.382812 99.976562 C 91.152344 99.976562 90.925781 99.902344 90.773438 99.671875 C 90.089844 98.148438 90.847656 96.703125 91.609375 95.257812 C 91.992188 94.570312 92.296875 93.886719 92.523438 93.199219 C 92.828125 91.828125 92.371094 90.6875 91.839844 89.925781 C 90.925781 88.554688 89.25 87.488281 87.574219 87.257812 C 84.527344 86.878906 81.632812 88.171875 78.816406 89.773438 C 78.285156 90.078125 77.371094 90.609375 76.378906 90.230469 C 75.921875 90.078125 75.542969 89.695312 75.390625 89.238281 C 75.160156 88.628906 75.160156 87.945312 75.464844 87.335938 C 75.921875 86.421875 76.761719 85.8125 77.445312 85.355469 C 82.089844 82.308594 86.585938 79.566406 91.609375 80.328125 C 93.820312 80.632812 95.875 81.625 97.78125 82.613281 C 98.464844 82.917969 99.152344 83.300781 99.835938 83.605469 C 103.414062 85.203125 107.375 86.042969 111.261719 86.117188 C 112.402344 86.117188 113.773438 86.042969 114.914062 85.507812 C 116.210938 84.898438 117.199219 83.605469 118.113281 82.386719 L 118.496094 81.851562 C 126.109375 72.105469 137.457031 67.230469 148.121094 69.210938 C 148.730469 69.285156 149.414062 69.4375 150.023438 69.515625 C 153.984375 70.199219 158.402344 70.960938 161.90625 73.019531 C 162.285156 73.246094 162.589844 73.476562 162.894531 73.703125 C 166.246094 72.027344 169.75 70.65625 173.40625 69.589844 C 174.320312 69.363281 176.527344 68.828125 178.125 69.667969 C 178.8125 70.046875 179.269531 70.65625 179.496094 71.496094 C 180.257812 74.3125 176.453125 76.0625 175.234375 76.519531 C 174.625 76.75 173.9375 76.902344 173.40625 76.976562 C 171.425781 77.28125 168.53125 77.433594 165.714844 76.671875 C 164.417969 76.292969 163.582031 75.683594 162.742188 75 C 160.457031 76.140625 158.25 77.433594 156.117188 78.804688 C 154.746094 79.71875 152.460938 81.546875 153.070312 83.527344 C 153.375 84.519531 154.367188 85.28125 155.433594 85.890625 C 157.640625 87.183594 160 88.402344 162.363281 89.46875 C 165.027344 90.761719 167.769531 92.058594 170.359375 93.734375 C 171.273438 94.34375 172.1875 94.953125 173.101562 95.636719 C 177.59375 94.722656 182.085938 93.503906 186.429688 92.058594 C 191.53125 90.304688 194.957031 90.6875 196.480469 93.277344 C 197.089844 94.265625 197.242188 95.636719 197.015625 97.007812 C 196.632812 99.0625 195.339844 100.816406 193.28125 102.035156 C 190.539062 103.710938 186.65625 104.089844 183.382812 103.101562 C 179.800781 101.957031 176.757812 99.75 173.785156 97.542969 C 173.480469 97.3125 173.175781 97.085938 172.871094 96.855469 C 169.902344 97.464844 166.855469 97.921875 163.808594 98.226562 C 163.277344 98.300781 162.742188 98.300781 162.132812 98.378906 C 158.628906 98.757812 154.976562 99.0625 151.699219 100.511719 C 148.273438 102.035156 144.921875 105.460938 145.148438 109.496094 C 145.226562 110.5625 145.453125 111.554688 145.757812 112.695312 C 146.0625 113.761719 146.367188 114.828125 146.445312 115.894531 C 146.445312 116.125 146.445312 116.429688 146.445312 116.65625 C 146.445312 117.34375 146.445312 118.027344 146.75 118.636719 C 147.28125 119.703125 148.5 120.234375 149.871094 120.691406 C 151.167969 121.148438 152.539062 121.683594 153.375 122.824219 C 153.527344 123.054688 153.679688 123.359375 153.832031 123.585938 C 154.0625 124.042969 154.289062 124.425781 154.671875 124.578125 C 155.355469 124.957031 156.34375 124.578125 157.257812 124.273438 L 157.640625 124.121094 C 163.277344 121.910156 169.597656 125.414062 172.339844 130.0625 C 174.929688 134.324219 175.539062 140.113281 174.089844 146.433594 L 174.015625 146.585938 C 173.785156 147.5 173.632812 148.339844 173.785156 149.101562 C 174.015625 150.015625 174.699219 150.699219 175.386719 151.386719 L 178.125 154.203125 C 179.878906 156.03125 181.859375 158.085938 184.371094 159 C 186.582031 159.839844 189.625 159.535156 190.996094 157.324219 L 191.300781 156.792969 C 193.585938 152.527344 195.035156 149.710938 199.527344 147.121094 L 199.90625 146.890625 C 201.050781 146.28125 202.191406 145.597656 202.726562 144.605469 C 203.5625 142.929688 202.800781 141.636719 201.886719 140.191406 C 201.125 139.046875 200.363281 137.828125 200.515625 136.382812 C 200.746094 133.945312 202.726562 133.335938 204.476562 132.726562 C 205.085938 132.496094 205.773438 132.269531 206.304688 131.964844 C 211.027344 129.375 212.472656 124.273438 213.539062 119.171875 C 213.539062 119.019531 213.691406 118.867188 213.84375 118.789062 C 213.996094 118.714844 214.148438 118.714844 214.300781 118.789062 C 215.902344 119.398438 217.425781 119.929688 218.796875 119.550781 C 219.558594 119.398438 220.242188 118.789062 220.625 118.105469 C 220.777344 117.722656 220.925781 117.265625 220.699219 116.734375 C 220.546875 116.429688 220.167969 115.894531 219.710938 115.4375 C 218.644531 114.144531 217.425781 112.773438 217.882812 111.402344 C 218.035156 110.945312 218.339844 110.5625 218.796875 110.410156 C 219.480469 110.183594 220.472656 110.335938 221.230469 110.792969 C 222.144531 111.402344 223.058594 111.933594 223.972656 112.46875 C 225.496094 113.382812 227.097656 114.296875 228.542969 115.4375 C 231.667969 118.105469 234.101562 121.453125 236.386719 124.804688 C 237.53125 123.96875 238.902344 123.433594 240.347656 123.128906 C 247.050781 121.910156 253.371094 127.015625 255.578125 132.726562 C 257.941406 138.667969 256.644531 142.703125 254.96875 148.1875 L 254.816406 148.796875 C 254.511719 149.710938 254.511719 150.699219 254.511719 151.613281 C 254.511719 153.210938 255.503906 153.898438 256.644531 154.8125 C 257.101562 155.117188 257.484375 155.496094 257.941406 155.878906 L 258.246094 156.183594 C 259.769531 157.554688 261.0625 158.773438 262.96875 159.535156 C 263.882812 159.839844 264.871094 160.144531 265.859375 160.371094 C 267.613281 160.828125 269.363281 161.210938 270.964844 162.277344 C 273.554688 164.101562 274.847656 167.453125 274.085938 170.578125 C 274.011719 170.730469 273.933594 170.882812 273.78125 170.957031 C 273.628906 171.035156 273.476562 171.035156 273.324219 170.957031 C 267.839844 168.292969 261.140625 168.445312 255.808594 171.414062 C 254.96875 175.222656 254.359375 180.402344 257.710938 182.761719 C 258.777344 183.523438 260.074219 183.828125 261.519531 184.132812 C 262.738281 184.4375 264.035156 184.742188 265.175781 185.351562 C 267.460938 186.644531 269.058594 189.160156 269.972656 193.121094 C 270.125 193.730469 270.277344 194.414062 270.429688 195.101562 C 270.886719 197.308594 271.34375 199.59375 272.5625 201.421875 C 273.933594 203.707031 276.902344 205.457031 279.339844 204.316406 C 280.40625 203.859375 281.320312 202.792969 282.082031 201.953125 C 284.0625 199.667969 286.273438 197.003906 287.335938 193.957031 C 288.25 191.292969 288.097656 187.558594 285.738281 185.425781 C 285.433594 185.199219 285.128906 184.894531 284.75 184.667969 C 284.0625 184.132812 283.300781 183.601562 282.84375 182.839844 C 282.3125 182.078125 282.3125 180.933594 282.691406 180.097656 C 282.996094 179.488281 283.53125 179.105469 284.140625 178.953125 C 284.75 178.878906 285.28125 179.105469 285.738281 179.335938 L 285.96875 179.410156 C 287.945312 180.171875 289.621094 180.25 290.6875 179.5625 C 291.601562 178.953125 292.136719 177.734375 292.136719 176.058594 C 292.136719 173.242188 290.003906 169.96875 288.097656 166.996094 C 287.414062 165.929688 286.726562 164.941406 286.273438 164.027344 C 285.433594 162.503906 284.519531 160.828125 283.074219 159.839844 C 282.386719 159.382812 281.625 159.078125 280.789062 158.773438 C 280.332031 158.621094 279.796875 158.390625 279.339844 158.164062 C 275.152344 156.183594 270.964844 152.222656 268.832031 148.261719 C 268.449219 147.578125 265.175781 141.105469 267.078125 137.753906 C 267.765625 136.609375 268.90625 136 270.507812 135.925781 C 272.183594 135.847656 273.628906 136.839844 275 137.828125 C 276.371094 138.820312 277.664062 139.734375 278.960938 139.351562 C 280.101562 138.972656 280.789062 137.675781 281.472656 136.457031 L 281.703125 136.078125 C 283.53125 132.726562 286.121094 130.363281 289.089844 129.527344 C 292.667969 128.460938 296.554688 129.832031 298.226562 132.726562 C 298.835938 133.792969 299.21875 135.542969 298.304688 136.761719 C 297.390625 137.90625 295.867188 137.980469 294.574219 138.058594 C 293.429688 138.132812 292.363281 138.132812 291.753906 138.742188 C 290.230469 140.113281 291.90625 142.855469 293.203125 144.300781 C 294.34375 145.597656 295.640625 147.042969 297.3125 147.730469 C 300.207031 148.871094 303.484375 147.273438 305.617188 145.445312 C 307.902344 143.386719 309.574219 140.722656 310.871094 137.980469 C 310.261719 137.753906 309.726562 137.371094 309.269531 136.839844 C 308.128906 135.542969 307.976562 133.714844 308.8125 131.660156 C 309.652344 129.679688 311.480469 127.625 313.078125 127.546875 C 313.765625 127.546875 314.296875 127.851562 314.679688 128.539062 C 315.289062 129.757812 314.90625 131.125 314.449219 132.34375 C 313.839844 133.867188 313.230469 135.542969 312.546875 137.144531 C 313.917969 137.296875 315.515625 137.066406 316.964844 136.761719 L 317.648438 136.609375 C 320.921875 136.078125 323.816406 136.304688 326.179688 137.371094 C 329.074219 138.667969 331.128906 141.332031 331.433594 144.148438 C 331.433594 144.378906 331.355469 144.605469 331.203125 144.683594 C 330.214844 145.292969 328.996094 145.140625 327.855469 144.988281 C 326.332031 144.757812 325.796875 144.835938 325.644531 145.367188 C 325.492188 145.824219 325.875 146.433594 326.863281 147.195312 C 331.738281 150.929688 336.992188 154.507812 342.550781 153.898438 C 343.464844 153.820312 344.378906 153.59375 345.292969 153.363281 C 345.980469 153.210938 346.664062 153.058594 347.425781 152.90625 C 348.570312 152.753906 349.710938 152.679688 350.855469 152.679688 C 347.730469 148.035156 344.457031 143.539062 341.027344 139.199219 C 333.792969 130.0625 325.796875 121.453125 317.191406 113.609375 C 277.589844 77.96875 224.886719 57.558594 172.035156 57.558594 C 111.792969 57.558594 53.988281 83.148438 13.472656 127.699219 C 13.246094 127.929688 12.863281 127.929688 12.636719 127.699219 C 12.40625 127.472656 12.40625 127.089844 12.636719 126.863281 C 32.664062 104.929688 56.425781 87.640625 83.460938 75.457031 C 111.335938 62.8125 141.191406 56.414062 172.035156 56.414062 C 198.691406 56.414062 224.886719 61.367188 249.945312 71.039062 C 275.078125 80.785156 297.695312 94.800781 317.34375 112.773438 C 325.949219 120.691406 334.023438 129.375 341.332031 138.515625 C 344.914062 143.007812 348.265625 147.730469 351.460938 152.449219 C 351.539062 152.527344 351.613281 152.679688 351.691406 152.832031 C 353.289062 153.058594 354.8125 153.441406 356.261719 154.125 C 358.621094 155.191406 360.375 156.714844 361.363281 158.46875 C 362.582031 160.675781 362.429688 163.417969 361.058594 165.167969 C 360.753906 165.550781 360.449219 165.703125 359.992188 165.625 C 358.164062 165.472656 355.421875 161.4375 351.613281 154.964844 C 351.386719 154.582031 351.160156 154.203125 351.007812 153.898438 C 349.710938 153.746094 348.339844 153.820312 347.046875 154.050781 C 346.359375 154.125 345.675781 154.355469 344.988281 154.507812 C 344.074219 154.734375 343.085938 154.964844 342.09375 155.039062 C 336.078125 155.726562 330.59375 151.996094 325.570312 148.109375 C 325.035156 147.730469 323.511719 146.585938 323.96875 145.0625 C 324.425781 143.464844 326.101562 143.691406 327.398438 143.921875 C 328.234375 143.996094 329.074219 144.148438 329.679688 143.921875 C 329.300781 141.636719 327.550781 139.582031 325.1875 138.4375 C 322.980469 137.449219 320.390625 137.21875 317.34375 137.753906 L 316.660156 137.90625 C 314.984375 138.210938 313.15625 138.515625 311.554688 138.210938 C 310.183594 141.179688 308.433594 143.996094 305.996094 146.207031 C 303.636719 148.261719 299.980469 150.015625 296.554688 148.71875 C 294.648438 147.957031 293.203125 146.359375 291.984375 144.988281 C 290.078125 142.855469 288.554688 139.65625 290.613281 137.828125 C 291.601562 136.914062 292.972656 136.914062 294.191406 136.839844 C 295.410156 136.761719 296.476562 136.761719 297.085938 136 C 297.695312 135.238281 297.464844 134.097656 296.933594 133.257812 C 295.5625 130.820312 292.136719 129.679688 289.089844 130.59375 C 285.511719 131.660156 283.378906 134.78125 282.386719 136.609375 L 282.160156 136.992188 C 281.398438 138.363281 280.636719 139.960938 278.960938 140.496094 C 277.054688 141.105469 275.53125 139.960938 273.933594 138.820312 C 272.714844 137.90625 271.496094 136.992188 270.203125 137.144531 C 268.984375 137.21875 268.144531 137.601562 267.6875 138.4375 C 266.394531 140.722656 268.296875 145.597656 269.441406 147.804688 C 271.421875 151.539062 275.378906 155.34375 279.417969 157.25 C 279.875 157.476562 280.332031 157.628906 280.789062 157.78125 C 281.625 158.085938 282.539062 158.46875 283.300781 159 C 284.976562 160.144531 286.042969 161.972656 286.878906 163.644531 C 287.335938 164.558594 288.023438 165.550781 288.707031 166.539062 C 290.6875 169.585938 292.898438 173.089844 292.898438 176.210938 C 292.898438 178.878906 291.832031 180.097656 290.992188 180.628906 C 289.621094 181.542969 287.566406 181.542969 285.207031 180.628906 L 284.902344 180.476562 C 284.519531 180.324219 284.140625 180.171875 283.835938 180.171875 C 283.605469 180.171875 283.378906 180.324219 283.226562 180.628906 C 282.996094 181.085938 283.074219 181.847656 283.300781 182.304688 C 283.683594 182.914062 284.292969 183.371094 284.902344 183.828125 C 285.28125 184.058594 285.585938 184.363281 285.96875 184.667969 C 288.707031 187.101562 288.9375 191.292969 287.945312 194.339844 C 286.878906 197.613281 284.519531 200.277344 282.539062 202.714844 C 281.703125 203.707031 280.789062 204.773438 279.417969 205.382812 C 278.808594 205.761719 278.121094 205.839844 277.4375 205.839844 Z M 352.453125 154.203125 C 352.527344 154.277344 352.527344 154.355469 352.605469 154.429688 C 354.203125 157.171875 358.46875 164.484375 360.070312 164.558594 C 360.070312 164.558594 360.144531 164.558594 360.144531 164.484375 C 361.210938 163.113281 361.289062 160.828125 360.375 159.078125 C 359.308594 157.097656 357.328125 155.878906 355.878906 155.269531 C 354.738281 154.734375 353.59375 154.429688 352.453125 154.203125 Z M 65.945312 133.488281 C 65.261719 133.488281 64.574219 133.5625 63.964844 133.867188 C 63.203125 134.25 62.59375 135.164062 62.824219 135.925781 C 62.976562 136.304688 63.355469 136.6875 63.964844 136.992188 C 65.109375 137.675781 66.859375 138.058594 68.078125 137.144531 C 69.066406 136.382812 69.296875 135.164062 69.296875 133.640625 L 66.9375 133.488281 C 66.632812 133.488281 66.25 133.488281 65.945312 133.488281 Z M 235.855469 126.632812 C 234.558594 127.851562 233.644531 129.375 233.492188 130.972656 C 233.265625 132.648438 234.027344 134.476562 235.320312 135.773438 C 236.386719 136.761719 237.683594 137.296875 238.976562 137.21875 C 240.347656 134.019531 238.367188 130.289062 236.160156 127.015625 C 236.082031 126.9375 235.929688 126.785156 235.855469 126.632812 Z M 312.699219 128.691406 C 312.699219 128.691406 312.621094 128.691406 312.699219 128.691406 C 311.785156 128.691406 310.183594 130.214844 309.421875 132.117188 C 309.042969 133.03125 308.585938 134.78125 309.726562 136.078125 C 310.109375 136.457031 310.488281 136.761719 310.945312 136.914062 C 311.707031 135.238281 312.316406 133.5625 312.925781 131.964844 C 313.308594 130.972656 313.613281 129.910156 313.230469 129.070312 C 313.003906 128.765625 312.851562 128.691406 312.699219 128.691406 Z M 174.242188 96.628906 C 174.320312 96.628906 174.320312 96.628906 174.242188 96.628906 C 177.210938 98.835938 180.183594 100.96875 183.609375 102.035156 C 186.582031 102.949219 190.082031 102.566406 192.597656 101.042969 C 193.816406 100.28125 195.339844 98.988281 195.796875 96.78125 C 196.023438 95.714844 195.871094 94.648438 195.414062 93.886719 C 194.195312 91.828125 191.300781 91.601562 186.734375 93.199219 C 182.621094 94.570312 178.507812 95.714844 174.242188 96.628906 Z M 163.886719 74.464844 C 164.496094 74.921875 165.105469 75.304688 166.019531 75.53125 C 168.074219 76.140625 170.664062 76.214844 173.253906 75.835938 C 173.710938 75.761719 174.320312 75.683594 174.777344 75.457031 C 175.460938 75.152344 178.8125 73.78125 178.355469 71.800781 C 178.203125 71.265625 177.972656 70.886719 177.515625 70.65625 C 176.300781 69.972656 174.320312 70.503906 173.710938 70.65625 C 170.359375 71.722656 167.082031 72.941406 163.886719 74.464844 Z M 163.886719 74.464844 " fill-opacity="1" fill-rule="nonzero"/></g><g clip-path="url(#52542bda27)"><path fill="#000000" d="M 171.53125 85.726562 C 166.171875 85.726562 161.972656 84.367188 161.972656 82.625 C 161.972656 80.886719 166.171875 79.523438 171.53125 79.523438 C 176.890625 79.523438 181.089844 80.886719 181.089844 82.625 C 181.089844 84.367188 176.890625 85.726562 171.53125 85.726562 Z M 171.53125 80.648438 C 167.691406 80.648438 164.449219 81.554688 164.449219 82.621094 C 164.449219 83.695312 167.691406 84.601562 171.53125 84.601562 C 175.367188 84.601562 178.613281 83.695312 178.613281 82.621094 C 178.613281 81.554688 175.367188 80.648438 171.53125 80.648438 Z M 171.53125 80.648438 " fill-opacity="1" fill-rule="nonzero"/></g><path fill="#000000" d="M 174.582031 82.621094 C 174.582031 82.734375 174.503906 82.847656 174.351562 82.953125 C 174.195312 83.058594 173.976562 83.148438 173.6875 83.230469 C 173.402344 83.3125 173.074219 83.375 172.699219 83.417969 C 172.324219 83.460938 171.933594 83.480469 171.53125 83.480469 C 171.125 83.480469 170.738281 83.460938 170.363281 83.417969 C 169.988281 83.375 169.660156 83.3125 169.371094 83.230469 C 169.085938 83.148438 168.867188 83.058594 168.710938 82.953125 C 168.554688 82.847656 168.476562 82.734375 168.476562 82.621094 C 168.476562 82.507812 168.554688 82.398438 168.710938 82.292969 C 168.867188 82.1875 169.085938 82.09375 169.371094 82.015625 C 169.660156 81.933594 169.988281 81.871094 170.363281 81.828125 C 170.738281 81.785156 171.125 81.761719 171.53125 81.761719 C 171.933594 81.761719 172.324219 81.785156 172.699219 81.828125 C 173.074219 81.871094 173.402344 81.933594 173.6875 82.015625 C 173.976562 82.09375 174.195312 82.1875 174.351562 82.292969 C 174.503906 82.398438 174.582031 82.507812 174.582031 82.621094 Z M 174.582031 82.621094 " fill-opacity="1" fill-rule="nonzero"/><path fill="#000000" d="M 171.53125 54.917969 C 167.761719 54.917969 164.703125 57.976562 164.703125 61.746094 C 164.703125 65.515625 171.53125 77.664062 171.53125 77.664062 C 171.53125 77.664062 178.355469 65.515625 178.355469 61.746094 C 178.355469 57.976562 175.300781 54.917969 171.53125 54.917969 Z M 171.53125 64.179688 C 170.183594 64.179688 169.097656 63.089844 169.097656 61.746094 C 169.097656 60.402344 170.183594 59.3125 171.53125 59.3125 C 172.875 59.3125 173.964844 60.402344 173.964844 61.746094 C 173.964844 63.089844 172.875 64.179688 171.53125 64.179688 Z M 171.53125 64.179688 " fill-opacity="1" fill-rule="nonzero"/><path stroke-linecap="round" transform="matrix(0.255207, 0, 0, 0.255207, 161.972928, -42.166503)" fill="none" stroke-linejoin="round" d="M 82.713574 411.041932 C 84.596235 407.291916 86.448284 403.633737 88.315638 400.082702 " stroke="#333333" stroke-width="6.133" stroke-opacity="1" stroke-miterlimit="4"/><g clip-path="url(#f77bc770a4)"><path fill="#333333" d="M 188.546875 51.140625 C 189.722656 49.203125 190.898438 47.390625 192.074219 45.699219 C 192.199219 45.519531 192.367188 45.414062 192.578125 45.375 C 192.789062 45.335938 192.984375 45.378906 193.164062 45.5 C 193.339844 45.625 193.449219 45.792969 193.488281 46.003906 C 193.527344 46.21875 193.484375 46.414062 193.359375 46.589844 C 192.203125 48.257812 191.046875 50.042969 189.886719 51.953125 C 189.773438 52.140625 189.613281 52.257812 189.402344 52.308594 C 189.191406 52.359375 188.996094 52.328125 188.808594 52.21875 C 188.625 52.105469 188.507812 51.945312 188.457031 51.734375 C 188.40625 51.523438 188.433594 51.328125 188.546875 51.140625 Z M 198.097656 38.082031 C 199.683594 36.359375 201.265625 34.863281 202.84375 33.59375 C 203.011719 33.457031 203.203125 33.402344 203.417969 33.425781 C 203.632812 33.445312 203.808594 33.542969 203.945312 33.710938 C 204.082031 33.878906 204.136719 34.070312 204.113281 34.285156 C 204.089844 34.5 203.992188 34.675781 203.824219 34.8125 C 202.304688 36.035156 200.78125 37.476562 199.25 39.144531 C 199.101562 39.300781 198.921875 39.386719 198.707031 39.394531 C 198.492188 39.402344 198.304688 39.335938 198.144531 39.1875 C 197.984375 39.042969 197.902344 38.859375 197.890625 38.644531 C 197.882812 38.429688 197.953125 38.242188 198.097656 38.082031 Z M 211.53125 28.859375 C 213.15625 28.398438 214.78125 28.171875 216.40625 28.1875 C 217 28.191406 217.582031 28.230469 218.160156 28.296875 C 218.375 28.324219 218.546875 28.421875 218.683594 28.589844 C 218.816406 28.761719 218.871094 28.953125 218.84375 29.167969 C 218.820312 29.382812 218.722656 29.554688 218.550781 29.691406 C 218.382812 29.824219 218.191406 29.878906 217.976562 29.851562 C 217.457031 29.789062 216.929688 29.757812 216.394531 29.753906 C 214.917969 29.738281 213.4375 29.941406 211.957031 30.363281 C 211.75 30.421875 211.550781 30.402344 211.363281 30.296875 C 211.175781 30.191406 211.050781 30.035156 210.992188 29.824219 C 210.933594 29.617188 210.953125 29.417969 211.058594 29.230469 C 211.164062 29.042969 211.320312 28.917969 211.53125 28.859375 Z M 227.296875 32.042969 C 227.570312 32.214844 227.976562 32.480469 228.519531 32.832031 C 230.332031 34.003906 231.726562 34.847656 232.707031 35.367188 C 232.898438 35.46875 233.023438 35.621094 233.085938 35.828125 C 233.152344 36.035156 233.132812 36.234375 233.03125 36.425781 C 232.929688 36.617188 232.773438 36.742188 232.570312 36.804688 C 232.363281 36.871094 232.164062 36.851562 231.972656 36.75 C 230.953125 36.210938 229.519531 35.339844 227.671875 34.144531 C 227.132812 33.796875 226.726562 33.535156 226.457031 33.363281 C 226.277344 33.25 226.160156 33.085938 226.113281 32.875 C 226.066406 32.664062 226.101562 32.464844 226.21875 32.285156 C 226.332031 32.101562 226.496094 31.988281 226.707031 31.941406 C 226.917969 31.894531 227.117188 31.925781 227.296875 32.042969 Z M 241.554688 37.867188 C 242.074219 37.890625 242.601562 37.894531 243.136719 37.878906 C 244.652344 37.835938 246.1875 37.648438 247.746094 37.308594 C 247.957031 37.261719 248.152344 37.296875 248.335938 37.414062 C 248.515625 37.53125 248.628906 37.695312 248.675781 37.90625 C 248.722656 38.117188 248.6875 38.3125 248.570312 38.496094 C 248.453125 38.679688 248.289062 38.792969 248.078125 38.839844 C 246.425781 39.195312 244.792969 39.398438 243.179688 39.445312 C 242.609375 39.460938 242.042969 39.457031 241.484375 39.433594 C 241.269531 39.421875 241.089844 39.339844 240.941406 39.179688 C 240.796875 39.019531 240.726562 38.832031 240.738281 38.617188 C 240.746094 38.402344 240.832031 38.21875 240.992188 38.074219 C 241.148438 37.925781 241.339844 37.859375 241.554688 37.867188 Z M 256.449219 33.886719 C 258.257812 32.839844 259.964844 31.632812 261.5625 30.261719 C 261.726562 30.121094 261.917969 30.058594 262.132812 30.074219 C 262.347656 30.09375 262.527344 30.183594 262.667969 30.347656 C 262.808594 30.511719 262.871094 30.699219 262.851562 30.914062 C 262.835938 31.132812 262.746094 31.308594 262.582031 31.449219 C 260.90625 32.882812 259.125 34.148438 257.230469 35.242188 C 257.042969 35.347656 256.84375 35.375 256.636719 35.320312 C 256.429688 35.265625 256.269531 35.140625 256.160156 34.957031 C 256.054688 34.769531 256.027344 34.570312 256.082031 34.363281 C 256.140625 34.152344 256.261719 33.996094 256.449219 33.886719 Z M 267.734375 23.21875 C 268.53125 21.972656 269.207031 20.703125 269.761719 19.410156 C 270.019531 18.8125 270.25 18.21875 270.449219 17.625 C 270.519531 17.417969 270.652344 17.269531 270.84375 17.171875 C 271.039062 17.078125 271.238281 17.0625 271.441406 17.132812 C 271.644531 17.203125 271.796875 17.332031 271.894531 17.527344 C 271.988281 17.71875 272.003906 17.917969 271.933594 18.125 C 271.71875 18.757812 271.476562 19.394531 271.199219 20.03125 C 270.609375 21.398438 269.894531 22.742188 269.054688 24.058594 C 268.9375 24.242188 268.773438 24.355469 268.5625 24.402344 C 268.351562 24.449219 268.15625 24.414062 267.972656 24.296875 C 267.792969 24.183594 267.675781 24.019531 267.628906 23.808594 C 267.582031 23.597656 267.617188 23.398438 267.734375 23.21875 Z M 271.414062 8.433594 C 271.351562 7.726562 271.226562 6.6875 271.039062 5.316406 C 270.84375 3.871094 270.71875 2.785156 270.660156 2.066406 C 270.644531 1.851562 270.703125 1.660156 270.84375 1.496094 C 270.984375 1.332031 271.164062 1.242188 271.378906 1.222656 C 271.59375 1.207031 271.785156 1.265625 271.949219 1.40625 C 272.113281 1.546875 272.203125 1.726562 272.222656 1.941406 C 272.277344 2.632812 272.398438 3.6875 272.59375 5.109375 C 272.78125 6.5 272.90625 7.5625 272.972656 8.292969 C 272.992188 8.511719 272.933594 8.699219 272.792969 8.867188 C 272.65625 9.03125 272.480469 9.125 272.261719 9.144531 C 272.046875 9.164062 271.859375 9.105469 271.691406 8.964844 C 271.527344 8.828125 271.433594 8.648438 271.414062 8.433594 Z M 272.730469 -7.617188 C 273.839844 -9.433594 275.363281 -11.066406 277.300781 -12.519531 C 277.472656 -12.648438 277.664062 -12.699219 277.878906 -12.667969 C 278.09375 -12.636719 278.265625 -12.535156 278.394531 -12.363281 C 278.523438 -12.191406 278.574219 -11.996094 278.542969 -11.78125 C 278.511719 -11.570312 278.410156 -11.398438 278.238281 -11.265625 C 276.464844 -9.9375 275.074219 -8.445312 274.066406 -6.800781 C 273.953125 -6.617188 273.792969 -6.5 273.582031 -6.449219 C 273.371094 -6.398438 273.175781 -6.429688 272.992188 -6.539062 C 272.808594 -6.652344 272.6875 -6.816406 272.636719 -7.023438 C 272.585938 -7.234375 272.617188 -7.433594 272.730469 -7.617188 Z M 286.054688 -16.960938 C 287.960938 -17.621094 290.046875 -18.207031 292.304688 -18.714844 C 292.515625 -18.765625 292.714844 -18.730469 292.894531 -18.613281 C 293.078125 -18.5 293.195312 -18.335938 293.242188 -18.125 C 293.289062 -17.914062 293.253906 -17.71875 293.140625 -17.535156 C 293.023438 -17.351562 292.859375 -17.238281 292.648438 -17.1875 C 290.445312 -16.691406 288.417969 -16.125 286.570312 -15.480469 C 286.363281 -15.410156 286.164062 -15.421875 285.96875 -15.515625 C 285.777344 -15.609375 285.644531 -15.761719 285.574219 -15.964844 C 285.5 -16.167969 285.511719 -16.367188 285.609375 -16.5625 C 285.703125 -16.757812 285.851562 -16.890625 286.054688 -16.960938 Z M 301.859375 -20.296875 C 303.910156 -20.535156 306.0625 -20.730469 308.3125 -20.882812 C 308.53125 -20.894531 308.71875 -20.832031 308.882812 -20.691406 C 309.042969 -20.546875 309.132812 -20.367188 309.148438 -20.152344 C 309.160156 -19.9375 309.097656 -19.75 308.957031 -19.585938 C 308.8125 -19.421875 308.632812 -19.335938 308.417969 -19.320312 C 306.191406 -19.171875 304.0625 -18.980469 302.039062 -18.742188 C 301.824219 -18.71875 301.632812 -18.773438 301.460938 -18.90625 C 301.292969 -19.042969 301.195312 -19.214844 301.171875 -19.429688 C 301.144531 -19.644531 301.199219 -19.839844 301.335938 -20.007812 C 301.46875 -20.175781 301.644531 -20.273438 301.859375 -20.296875 Z M 301.859375 -20.296875 " fill-opacity="1" fill-rule="nonzero"/></g><g clip-path="url(#afed58c54f)"><path fill="#000000" d="M 293.859375 31.160156 L 293.261719 27.367188 L 294.3125 26.730469 C 294.648438 26.527344 294.757812 26.085938 294.554688 25.753906 L 294.117188 25.03125 C 293.914062 24.695312 293.476562 24.589844 293.140625 24.792969 L 292.875 24.949219 L 292.519531 22.722656 L 293.070312 22.390625 C 293.40625 22.1875 293.515625 21.75 293.3125 21.414062 L 292.875 20.691406 C 292.71875 20.433594 292.425781 20.3125 292.144531 20.363281 L 291.886719 18.726562 C 296.242188 15.941406 299.574219 13.417969 298.84375 12.207031 C 298.113281 10.996094 294.328125 12.765625 289.832031 15.324219 L 288.507812 14.328125 C 288.679688 14.105469 288.710938 13.789062 288.554688 13.527344 L 288.121094 12.808594 C 287.917969 12.472656 287.476562 12.363281 287.144531 12.566406 L 286.59375 12.898438 L 284.789062 11.546875 L 285.054688 11.386719 C 285.386719 11.183594 285.496094 10.746094 285.292969 10.410156 L 284.859375 9.691406 C 284.65625 9.355469 284.214844 9.246094 283.882812 9.449219 L 282.828125 10.085938 L 279.75 7.78125 C 279.234375 7.398438 278.566406 7.355469 278.0625 7.683594 L 276.945312 8.402344 C 276.703125 8.558594 276.6875 8.925781 276.925781 9.132812 L 279.929688 12.246094 C 279.574219 12.695312 279.332031 13.164062 279.484375 13.421875 C 279.675781 13.742188 280.4375 13.667969 281.128906 13.492188 L 283.082031 15.515625 C 282.792969 15.917969 282.609375 16.3125 282.746094 16.546875 C 282.921875 16.835938 283.554688 16.804688 284.191406 16.664062 L 285.414062 17.929688 C 285.246094 18.03125 285.078125 18.128906 284.914062 18.230469 C 281.679688 20.179688 278.6875 22.289062 276.59375 24.015625 L 276.601562 24.007812 C 276.601562 24.007812 275.609375 23.527344 274.5 22.964844 C 273.855469 22.640625 272.175781 21.890625 271.867188 22.132812 L 271.109375 22.71875 C 270.976562 22.824219 270.949219 23.019531 271.054688 23.152344 L 274.113281 26.355469 C 273.699219 26.855469 273.515625 27.230469 273.628906 27.421875 C 273.746094 27.613281 274.167969 27.625 274.800781 27.492188 L 276.207031 31.6875 C 276.277344 31.84375 276.460938 31.914062 276.617188 31.84375 L 277.488281 31.445312 C 277.84375 31.285156 277.96875 29.449219 277.984375 28.730469 C 278.003906 27.484375 278.039062 26.382812 278.039062 26.382812 L 278.035156 26.386719 C 280.535156 25.335938 283.800781 23.675781 287.03125 21.726562 C 287.195312 21.625 287.363281 21.527344 287.53125 21.425781 L 288.078125 23.097656 C 287.664062 23.59375 287.335938 24.140625 287.511719 24.425781 C 287.648438 24.65625 288.085938 24.675781 288.578125 24.609375 L 289.453125 27.277344 C 288.972656 27.808594 288.554688 28.449219 288.746094 28.765625 C 288.90625 29.027344 289.433594 29.027344 289.996094 28.925781 L 291.347656 33.035156 C 291.421875 33.339844 291.753906 33.5 292.007812 33.359375 L 293.164062 32.707031 C 293.683594 32.40625 293.960938 31.796875 293.859375 31.160156 Z M 293.859375 31.160156 " fill-opacity="1" fill-rule="nonzero"/></g><path stroke-linecap="round" transform="matrix(0.270682, 0, 0, 0.270682, 99.882056, 7.456646)" fill="none" stroke-linejoin="round" d="M 611.060471 85.000826 C 615.072327 84.943102 619.17077 84.914239 623.3558 84.914239 " stroke="#333333" stroke-width="6.133" stroke-opacity="1" stroke-miterlimit="4"/><g clip-path="url(#dae55f86c9)"><path stroke-linecap="butt" transform="matrix(0.77943, 0, 0, 0.77943, -41.154716, 202.888199)" fill="none" stroke-linejoin="miter" d="M 75.368595 38.572954 C 68.803302 38.572954 63.972048 37.224814 60.874834 34.51851 C 58.133448 32.12293 56.76025 28.865342 56.76025 24.740734 C 56.76025 20.606103 58.133448 17.343504 60.874834 14.947924 C 63.972048 12.246631 68.803302 10.893479 75.368595 10.893479 C 79.112315 10.893479 82.219553 11.31446 84.700331 12.15141 C 87.186121 12.993371 89.130651 14.136032 90.543943 15.584406 C 91.957235 17.037792 92.924488 18.706679 93.44069 20.59608 L 81.517918 20.59608 C 80.270011 18.877076 78.220237 18.02008 75.368595 18.02008 C 72.677326 18.02008 70.697715 18.791877 69.424749 20.335473 C 68.417403 21.58338 67.911224 23.0518 67.911224 24.740734 C 67.911224 26.43468 68.417403 27.898089 69.424749 29.13096 C 70.697715 30.674556 72.677326 31.446354 75.368595 31.446354 C 77.543661 31.446354 79.177467 31.25591 80.270011 30.880035 C 81.362556 30.504159 82.159412 30.013015 82.665592 29.406602 L 78.315459 29.406602 L 78.315459 24.740734 L 93.44069 24.740734 L 93.44069 38.016658 L 88.814915 38.016658 L 87.867709 35.445669 C 84.920845 37.530526 80.751132 38.572954 75.368595 38.572954 Z M 128.487325 38.001623 L 97.475088 38.001623 L 97.475088 11.429729 L 108.62105 11.429729 L 108.62105 31.426307 L 128.487325 31.426307 Z M 148.168168 38.572954 C 141.597864 38.572954 136.76661 37.224814 133.669396 34.51851 C 130.92801 32.12293 129.559823 28.86033 129.559823 24.725699 C 129.559823 20.601092 130.92801 17.343504 133.669396 14.947924 C 136.76661 12.246631 141.597864 10.893479 148.168168 10.893479 C 154.733461 10.893479 159.564714 12.246631 162.66694 14.947924 C 165.403314 17.343504 166.776513 20.601092 166.776513 24.725699 C 166.776513 28.86033 165.403314 32.12293 162.66694 34.51851 C 159.564714 37.224814 154.733461 38.572954 148.168168 38.572954 Z M 148.168168 31.446354 C 150.859437 31.446354 152.834036 30.674556 154.091966 29.13096 C 155.104324 27.883054 155.610503 26.414633 155.610503 24.725699 C 155.610503 23.031753 155.104324 21.568345 154.091966 20.335473 C 152.834036 18.781854 150.859437 18.005045 148.168168 18.005045 C 145.476899 18.005045 143.497288 18.781854 142.224323 20.335473 C 141.211965 21.568345 140.705786 23.031753 140.705786 24.725699 C 140.705786 26.414633 141.211965 27.883054 142.224323 29.13096 C 143.497288 30.674556 145.476899 31.446354 148.168168 31.446354 Z M 189.118554 38.001623 L 170.069182 38.001623 L 170.069182 11.449775 L 189.5245 11.449775 C 192.982555 11.449775 195.829186 11.605137 198.064392 11.920873 C 200.294587 12.236608 202.018603 12.727752 203.226416 13.404328 C 204.439241 14.075892 205.261156 14.927877 205.69216 15.965293 C 206.123164 17.00271 206.338666 18.245605 206.338666 19.688967 C 206.303584 20.821605 205.987848 21.7638 205.401483 22.510539 C 204.815117 23.257279 204.133529 23.813575 203.346696 24.179427 C 202.564875 24.540267 201.878276 24.725699 201.281887 24.725699 C 201.863241 24.725699 202.544828 24.840968 203.321638 25.066493 C 204.098447 25.29703 204.85521 25.6278 205.586914 26.058804 C 206.323631 26.489808 206.935055 27.016034 207.421187 27.63247 C 207.907319 28.248906 208.152891 28.95054 208.152891 29.742385 C 208.152891 30.779801 208.032611 31.727007 207.792051 32.594027 C 207.551491 33.456035 207.07037 34.222821 206.348689 34.889374 C 205.627008 35.555926 204.559521 36.122245 203.156253 36.583319 C 201.747972 37.044393 199.903676 37.400222 197.628376 37.640782 C 195.348065 37.881343 192.511458 38.001623 189.118554 38.001623 Z M 188.492095 22.445388 C 190.120889 22.445388 191.383831 22.365201 192.275909 22.204827 C 193.172998 22.044454 193.789434 21.803893 194.13524 21.473123 C 194.481045 21.147364 194.656454 20.731395 194.656454 20.225216 C 194.656454 19.709014 194.481045 19.283021 194.13524 18.957263 C 193.789434 18.631504 193.172998 18.390943 192.275909 18.235582 C 191.383831 18.08022 190.120889 18.005045 188.492095 18.005045 L 181.215145 18.005045 L 181.215145 22.445388 Z M 188.492095 31.446354 C 190.155971 31.446354 191.509123 31.401249 192.546539 31.31605 C 193.583956 31.230852 194.340718 31.030385 194.821839 30.724673 C 195.30296 30.413949 195.54352 29.912782 195.54352 29.221171 C 195.54352 28.534571 195.30296 28.028392 194.821839 27.712657 C 194.340718 27.401933 193.583956 27.201466 192.546539 27.121279 C 191.509123 27.041092 190.155971 27.000999 188.492095 27.000999 L 181.215145 27.000999 L 181.215145 31.446354 Z M 243.440087 38.001623 L 211.445561 38.001623 L 211.445561 11.429729 L 241.976678 11.429729 L 241.976678 18.005045 L 222.591524 18.005045 L 222.591524 22.169746 L 238.974685 22.169746 L 238.974685 27.281653 L 222.591524 27.281653 L 222.591524 31.426307 L 243.440087 31.426307 Z M 266.433646 38.001623 L 255.287683 38.001623 L 255.287683 18.005045 L 244.878437 18.005045 L 244.878437 11.429729 L 276.837881 11.429729 L 276.837881 18.005045 L 266.433646 18.005045 Z M 316.034181 38.001623 L 305.499643 38.001623 C 305.018522 37.33507 304.677729 36.483086 304.477262 35.445669 C 304.306865 34.643802 304.046258 33.856969 303.700452 33.085171 C 303.354647 32.313373 302.763269 31.671879 301.916296 31.160688 C 301.069323 30.644486 299.811393 30.373855 298.147518 30.333762 L 290.905649 30.333762 L 290.905649 38.001623 L 279.759686 38.001623 L 279.759686 11.429729 L 297.886911 11.429729 C 302.222008 11.429729 305.715145 11.755487 308.376344 12.401993 C 311.037543 13.048499 312.97706 14.070881 314.199909 15.459114 C 315.422757 16.847348 316.034181 18.656562 316.034181 20.891769 C 316.034181 22.756111 315.608189 24.324765 314.766228 25.592719 C 313.919255 26.865684 312.581138 27.87303 310.756889 28.614758 C 312.520998 29.341451 313.668671 30.213482 314.189885 31.230852 C 314.716111 32.253233 315.04187 33.370836 315.16215 34.593685 C 315.287442 35.681218 315.578119 36.813856 316.034181 38.001623 Z M 290.905649 23.778493 L 297.275486 23.763458 C 299.054631 23.763458 300.457899 23.683271 301.480281 23.522897 C 302.502662 23.362524 303.259425 23.14201 303.750569 22.861356 C 304.236701 22.585714 304.547425 22.274991 304.68274 21.939209 C 304.818055 21.598415 304.888219 21.247598 304.888219 20.891769 C 304.888219 20.53594 304.818055 20.180111 304.68274 19.834306 C 304.547425 19.4885 304.236701 19.177776 303.750569 18.902134 C 303.259425 18.62148 302.502662 18.405978 301.480281 18.245605 C 300.457899 18.085231 299.054631 18.005045 297.275486 18.005045 L 290.905649 18.005045 Z M 336.45174 38.572954 C 329.886448 38.572954 325.050182 37.224814 321.952968 34.51851 C 319.211583 32.12293 317.843396 28.86033 317.843396 24.725699 C 317.843396 20.601092 319.211583 17.343504 321.952968 14.947924 C 325.050182 12.246631 329.886448 10.893479 336.45174 10.893479 C 343.017033 10.893479 347.853298 12.246631 350.950513 14.947924 C 353.691898 17.343504 355.060085 20.601092 355.060085 24.725699 C 355.060085 28.86033 353.691898 32.12293 350.950513 34.51851 C 347.853298 37.224814 343.017033 38.572954 336.45174 38.572954 Z M 336.45174 31.446354 C 339.143009 31.446354 341.117609 30.674556 342.375539 29.13096 C 343.387897 27.883054 343.894076 26.414633 343.894076 24.725699 C 343.894076 23.031753 343.387897 21.568345 342.375539 20.335473 C 341.117609 18.781854 339.143009 18.005045 336.45174 18.005045 C 333.760472 18.005045 331.78086 18.781854 330.507895 20.335473 C 329.495537 21.568345 328.989358 23.031753 328.989358 24.725699 C 328.989358 26.414633 329.495537 27.883054 330.507895 29.13096 C 331.78086 30.674556 333.760472 31.446354 336.45174 31.446354 Z M 378.053644 38.001623 L 366.907682 38.001623 L 366.907682 18.005045 L 356.498435 18.005045 L 356.498435 11.429729 L 388.457879 11.429729 L 388.457879 18.005045 L 378.053644 18.005045 Z M 411.080575 38.001623 L 399.934612 38.001623 L 399.934612 18.005045 L 389.530377 18.005045 L 389.530377 11.429729 L 421.484809 11.429729 L 421.484809 18.005045 L 411.080575 18.005045 Z M 456.406152 38.001623 L 424.411627 38.001623 L 424.411627 11.429729 L 454.942744 11.429729 L 454.942744 18.005045 L 435.557589 18.005045 L 435.557589 22.169746 L 451.940751 22.169746 L 451.940751 27.281653 L 435.557589 27.281653 L 435.557589 31.426307 L 456.406152 31.426307 Z M 495.968305 38.001623 L 485.433767 38.001623 C 484.952646 37.33507 484.611852 36.483086 484.416397 35.445669 C 484.246 34.643802 483.985393 33.856969 483.639588 33.085171 C 483.293782 32.313373 482.697393 31.671879 481.85042 31.160688 C 481.008459 30.644486 479.750529 30.373855 478.086653 30.333762 L 470.844785 30.333762 L 470.844785 38.001623 L 459.698822 38.001623 L 459.698822 11.429729 L 477.826046 11.429729 C 482.156132 11.429729 485.654281 11.755487 488.315479 12.401993 C 490.971666 13.048499 492.916196 14.070881 494.139044 15.459114 C 495.356881 16.847348 495.968305 18.656562 495.968305 20.891769 C 495.968305 22.756111 495.547325 24.324765 494.700352 25.592719 C 493.858391 26.865684 492.520274 27.87303 490.691013 28.614758 C 492.460134 29.341451 493.602795 30.213482 494.129021 31.230852 C 494.650235 32.253233 494.975994 33.370836 495.101286 34.593685 C 495.221566 35.681218 495.512243 36.813856 495.968305 38.001623 Z M 470.844785 23.778493 L 477.214622 23.763458 C 478.993766 23.763458 480.392023 23.683271 481.419416 23.522897 C 482.441798 23.362524 483.19856 23.14201 483.684693 22.861356 C 484.170825 22.585714 484.486561 22.274991 484.621876 21.939209 C 484.757191 21.598415 484.822343 21.247598 484.822343 20.891769 C 484.822343 20.53594 484.757191 20.180111 484.621876 19.834306 C 484.486561 19.4885 484.170825 19.177776 483.684693 18.902134 C 483.19856 18.62148 482.441798 18.405978 481.419416 18.245605 C 480.392023 18.085231 478.993766 18.005045 477.214622 18.005045 L 470.844785 18.005045 Z M 513.849957 38.572954 C 510.261599 38.572954 507.364851 38.187055 505.169738 37.415257 C 502.969614 36.643459 501.295714 35.585996 500.148041 34.232844 C 499.000368 32.879692 498.22857 31.321062 497.83766 29.556953 L 509.66521 29.556953 C 510.542253 30.814883 511.94051 31.446354 513.849957 31.446354 C 515.764417 31.446354 517.157662 30.814883 518.034705 29.556953 C 518.10988 29.431661 518.144962 29.321404 518.144962 29.221171 C 518.144962 28.8904 517.703934 28.639816 516.82188 28.474431 C 515.939825 28.309046 514.621755 28.178742 512.872681 28.093544 C 510.662533 27.99331 508.342128 27.762773 505.906454 27.39191 C 500.488835 26.549948 497.782531 24.374882 497.782531 20.856687 C 497.782531 20.555987 497.797566 20.245263 497.83766 19.909481 C 498.22857 18.145371 499.000368 16.586741 500.148041 15.233589 C 501.295714 13.885449 502.969614 12.822974 505.169738 12.051176 C 507.364851 11.279378 510.261599 10.893479 513.849957 10.893479 C 517.443327 10.893479 520.340075 11.279378 522.535188 12.051176 C 524.730301 12.822974 526.4042 13.885449 527.551873 15.233589 C 528.699547 16.586741 529.471344 18.145371 529.867267 19.909481 L 518.034705 19.909481 C 517.157662 18.651551 515.764417 18.02008 513.849957 18.02008 C 511.94051 18.02008 510.542253 18.651551 509.66521 19.909481 C 509.60507 20.009714 509.575 20.099924 509.575 20.190134 C 509.575 20.485823 509.99598 20.701325 510.842953 20.846664 C 511.689926 20.98699 512.932821 21.107271 514.581662 21.207504 C 516.230502 21.302726 517.984588 21.4631 519.848931 21.688625 C 521.713273 21.909138 523.457336 22.295037 525.081118 22.846321 C 526.704901 23.392594 527.972854 24.204485 528.884979 25.281995 C 529.601648 26.108921 529.962489 27.156361 529.962489 28.429326 C 529.962489 28.785155 529.927407 29.16103 529.867267 29.556953 C 529.471344 31.321062 528.699547 32.879692 527.551873 34.232844 C 526.4042 35.585996 524.730301 36.643459 522.535188 37.415257 C 520.340075 38.187055 517.443327 38.572954 513.849957 38.572954 Z M 513.849957 38.572954 " stroke="#006402" stroke-width="2.844518" stroke-opacity="1" stroke-miterlimit="4"/></g><g fill="#3fc742" fill-opacity="1"><g transform="translate(1.93316, 232.506547)"><g><path d="M 15.65625 0.453125 C 10.539062 0.453125 6.773438 -0.601562 4.359375 -2.71875 C 2.222656 -4.582031 1.15625 -7.117188 1.15625 -10.328125 C 1.15625 -13.554688 2.222656 -16.101562 4.359375 -17.96875 C 6.773438 -20.070312 10.539062 -21.125 15.65625 -21.125 C 18.570312 -21.125 21 -20.796875 22.9375 -20.140625 C 24.875 -19.492188 26.390625 -18.601562 27.484375 -17.46875 C 28.585938 -16.34375 29.34375 -15.039062 29.75 -13.5625 L 20.453125 -13.5625 C 19.484375 -14.90625 17.882812 -15.578125 15.65625 -15.578125 C 13.5625 -15.578125 12.019531 -14.972656 11.03125 -13.765625 C 10.238281 -12.796875 9.84375 -11.648438 9.84375 -10.328125 C 9.84375 -9.015625 10.238281 -7.878906 11.03125 -6.921875 C 12.019531 -5.710938 13.5625 -5.109375 15.65625 -5.109375 C 17.351562 -5.109375 18.625 -5.253906 19.46875 -5.546875 C 20.320312 -5.835938 20.945312 -6.222656 21.34375 -6.703125 L 17.953125 -6.703125 L 17.953125 -10.328125 L 29.75 -10.328125 L 29.75 0.015625 L 26.140625 0.015625 L 25.40625 -1.984375 C 23.101562 -0.359375 19.851562 0.453125 15.65625 0.453125 Z M 15.65625 0.453125 "/></g></g></g><g fill="#3fc742" fill-opacity="1"><g transform="translate(32.510308, 232.506547)"><g><path d="M 26.484375 0 L 2.3125 0 L 2.3125 -20.71875 L 11 -20.71875 L 11 -5.125 L 26.484375 -5.125 Z M 26.484375 0 "/></g></g></g><g fill="#3fc742" fill-opacity="1"><g transform="translate(58.672977, 232.506547)"><g><path d="M 15.65625 0.453125 C 10.539062 0.453125 6.773438 -0.601562 4.359375 -2.71875 C 2.222656 -4.582031 1.15625 -7.125 1.15625 -10.34375 C 1.15625 -13.5625 2.222656 -16.101562 4.359375 -17.96875 C 6.773438 -20.070312 10.539062 -21.125 15.65625 -21.125 C 20.78125 -21.125 24.550781 -20.070312 26.96875 -17.96875 C 29.101562 -16.101562 30.171875 -13.5625 30.171875 -10.34375 C 30.171875 -7.125 29.101562 -4.582031 26.96875 -2.71875 C 24.550781 -0.601562 20.78125 0.453125 15.65625 0.453125 Z M 15.65625 -5.109375 C 17.757812 -5.109375 19.300781 -5.710938 20.28125 -6.921875 C 21.070312 -7.890625 21.46875 -9.03125 21.46875 -10.34375 C 21.46875 -11.664062 21.070312 -12.804688 20.28125 -13.765625 C 19.300781 -14.984375 17.757812 -15.59375 15.65625 -15.59375 C 13.5625 -15.59375 12.019531 -14.984375 11.03125 -13.765625 C 10.238281 -12.804688 9.84375 -11.664062 9.84375 -10.34375 C 9.84375 -9.03125 10.238281 -7.890625 11.03125 -6.921875 C 12.019531 -5.710938 13.5625 -5.109375 15.65625 -5.109375 Z M 15.65625 -5.109375 "/></g></g></g><g fill="#3fc742" fill-opacity="1"><g transform="translate(89.091431, 232.506547)"><g><path d="M 17.15625 0 L 2.3125 0 L 2.3125 -20.703125 L 17.484375 -20.703125 C 20.171875 -20.703125 22.382812 -20.578125 24.125 -20.328125 C 25.875 -20.085938 27.21875 -19.703125 28.15625 -19.171875 C 29.101562 -18.648438 29.742188 -17.984375 30.078125 -17.171875 C 30.421875 -16.367188 30.59375 -15.40625 30.59375 -14.28125 C 30.5625 -13.394531 30.316406 -12.660156 29.859375 -12.078125 C 29.398438 -11.492188 28.863281 -11.054688 28.25 -10.765625 C 27.644531 -10.484375 27.109375 -10.34375 26.640625 -10.34375 C 27.097656 -10.34375 27.628906 -10.253906 28.234375 -10.078125 C 28.835938 -9.898438 29.425781 -9.644531 30 -9.3125 C 30.570312 -8.976562 31.046875 -8.566406 31.421875 -8.078125 C 31.804688 -7.597656 32 -7.050781 32 -6.4375 C 32 -5.625 31.90625 -4.878906 31.71875 -4.203125 C 31.53125 -3.535156 31.15625 -2.941406 30.59375 -2.421875 C 30.03125 -1.898438 29.195312 -1.457031 28.09375 -1.09375 C 27 -0.738281 25.5625 -0.46875 23.78125 -0.28125 C 22.007812 -0.09375 19.800781 0 17.15625 0 Z M 16.671875 -12.125 C 17.941406 -12.125 18.925781 -12.1875 19.625 -12.3125 C 20.320312 -12.4375 20.804688 -12.625 21.078125 -12.875 C 21.347656 -13.132812 21.484375 -13.460938 21.484375 -13.859375 C 21.484375 -14.265625 21.347656 -14.59375 21.078125 -14.84375 C 20.804688 -15.101562 20.320312 -15.289062 19.625 -15.40625 C 18.925781 -15.53125 17.941406 -15.59375 16.671875 -15.59375 L 11 -15.59375 L 11 -12.125 Z M 16.671875 -5.109375 C 17.972656 -5.109375 19.023438 -5.140625 19.828125 -5.203125 C 20.640625 -5.273438 21.234375 -5.429688 21.609375 -5.671875 C 21.984375 -5.910156 22.171875 -6.300781 22.171875 -6.84375 C 22.171875 -7.382812 21.984375 -7.773438 21.609375 -8.015625 C 21.234375 -8.265625 20.640625 -8.421875 19.828125 -8.484375 C 19.023438 -8.546875 17.972656 -8.578125 16.671875 -8.578125 L 11 -8.578125 L 11 -5.109375 Z M 16.671875 -5.109375 "/></g></g></g><g fill="#3fc742" fill-opacity="1"><g transform="translate(121.342045, 232.506547)"><g><path d="M 27.25 0 L 2.3125 0 L 2.3125 -20.71875 L 26.109375 -20.71875 L 26.109375 -15.59375 L 11 -15.59375 L 11 -12.34375 L 23.78125 -12.34375 L 23.78125 -8.359375 L 11 -8.359375 L 11 -5.125 L 27.25 -5.125 Z M 27.25 0 "/></g></g></g><g fill="#3fc742" fill-opacity="1"><g transform="translate(148.846373, 232.506547)"><g><path d="M 17.671875 0 L 8.984375 0 L 8.984375 -15.59375 L 0.859375 -15.59375 L 0.859375 -20.71875 L 25.78125 -20.71875 L 25.78125 -15.59375 L 17.671875 -15.59375 Z M 17.671875 0 "/></g></g></g><g fill="#3fc742" fill-opacity="1"><g transform="translate(174.590678, 232.506547)"><g><path d="M 30.59375 0 L 22.375 0 C 22 -0.519531 21.734375 -1.179688 21.578125 -1.984375 C 21.441406 -2.617188 21.238281 -3.234375 20.96875 -3.828125 C 20.695312 -4.429688 20.234375 -4.929688 19.578125 -5.328125 C 18.921875 -5.734375 17.941406 -5.945312 16.640625 -5.96875 L 11 -5.96875 L 11 0 L 2.3125 0 L 2.3125 -20.71875 L 16.4375 -20.71875 C 19.820312 -20.71875 22.550781 -20.460938 24.625 -19.953125 C 26.695312 -19.453125 28.207031 -18.660156 29.15625 -17.578125 C 30.113281 -16.492188 30.59375 -15.082031 30.59375 -13.34375 C 30.59375 -11.882812 30.257812 -10.660156 29.59375 -9.671875 C 28.9375 -8.679688 27.894531 -7.894531 26.46875 -7.3125 C 27.84375 -6.75 28.734375 -6.066406 29.140625 -5.265625 C 29.554688 -4.472656 29.8125 -3.601562 29.90625 -2.65625 C 30 -1.8125 30.226562 -0.925781 30.59375 0 Z M 11 -11.09375 L 15.96875 -11.09375 C 17.351562 -11.09375 18.441406 -11.15625 19.234375 -11.28125 C 20.035156 -11.40625 20.625 -11.578125 21 -11.796875 C 21.382812 -12.015625 21.628906 -12.253906 21.734375 -12.515625 C 21.835938 -12.785156 21.890625 -13.0625 21.890625 -13.34375 C 21.890625 -13.613281 21.835938 -13.882812 21.734375 -14.15625 C 21.628906 -14.425781 21.382812 -14.671875 21 -14.890625 C 20.625 -15.109375 20.035156 -15.28125 19.234375 -15.40625 C 18.441406 -15.53125 17.351562 -15.59375 15.96875 -15.59375 L 11 -15.59375 Z M 11 -11.09375 "/></g></g></g><g fill="#3fc742" fill-opacity="1"><g transform="translate(205.427504, 232.506547)"><g><path d="M 15.65625 0.453125 C 10.539062 0.453125 6.773438 -0.601562 4.359375 -2.71875 C 2.222656 -4.582031 1.15625 -7.125 1.15625 -10.34375 C 1.15625 -13.5625 2.222656 -16.101562 4.359375 -17.96875 C 6.773438 -20.070312 10.539062 -21.125 15.65625 -21.125 C 20.78125 -21.125 24.550781 -20.070312 26.96875 -17.96875 C 29.101562 -16.101562 30.171875 -13.5625 30.171875 -10.34375 C 30.171875 -7.125 29.101562 -4.582031 26.96875 -2.71875 C 24.550781 -0.601562 20.78125 0.453125 15.65625 0.453125 Z M 15.65625 -5.109375 C 17.757812 -5.109375 19.300781 -5.710938 20.28125 -6.921875 C 21.070312 -7.890625 21.46875 -9.03125 21.46875 -10.34375 C 21.46875 -11.664062 21.070312 -12.804688 20.28125 -13.765625 C 19.300781 -14.984375 17.757812 -15.59375 15.65625 -15.59375 C 13.5625 -15.59375 12.019531 -14.984375 11.03125 -13.765625 C 10.238281 -12.804688 9.84375 -11.664062 9.84375 -10.34375 C 9.84375 -9.03125 10.238281 -7.890625 11.03125 -6.921875 C 12.019531 -5.710938 13.5625 -5.109375 15.65625 -5.109375 Z M 15.65625 -5.109375 "/></g></g></g><g fill="#3fc742" fill-opacity="1"><g transform="translate(235.845954, 232.506547)"><g><path d="M 17.671875 0 L 8.984375 0 L 8.984375 -15.59375 L 0.859375 -15.59375 L 0.859375 -20.71875 L 25.78125 -20.71875 L 25.78125 -15.59375 L 17.671875 -15.59375 Z M 17.671875 0 "/></g></g></g><g fill="#3fc742" fill-opacity="1"><g transform="translate(261.590248, 232.506547)"><g><path d="M 17.671875 0 L 8.984375 0 L 8.984375 -15.59375 L 0.859375 -15.59375 L 0.859375 -20.71875 L 25.78125 -20.71875 L 25.78125 -15.59375 L 17.671875 -15.59375 Z M 17.671875 0 "/></g></g></g><g fill="#3fc742" fill-opacity="1"><g transform="translate(287.334542, 232.506547)"><g><path d="M 27.25 0 L 2.3125 0 L 2.3125 -20.71875 L 26.109375 -20.71875 L 26.109375 -15.59375 L 11 -15.59375 L 11 -12.34375 L 23.78125 -12.34375 L 23.78125 -8.359375 L 11 -8.359375 L 11 -5.125 L 27.25 -5.125 Z M 27.25 0 "/></g></g></g><g fill="#3fc742" fill-opacity="1"><g transform="translate(314.838857, 232.506547)"><g><path d="M 30.59375 0 L 22.375 0 C 22 -0.519531 21.734375 -1.179688 21.578125 -1.984375 C 21.441406 -2.617188 21.238281 -3.234375 20.96875 -3.828125 C 20.695312 -4.429688 20.234375 -4.929688 19.578125 -5.328125 C 18.921875 -5.734375 17.941406 -5.945312 16.640625 -5.96875 L 11 -5.96875 L 11 0 L 2.3125 0 L 2.3125 -20.71875 L 16.4375 -20.71875 C 19.820312 -20.71875 22.550781 -20.460938 24.625 -19.953125 C 26.695312 -19.453125 28.207031 -18.660156 29.15625 -17.578125 C 30.113281 -16.492188 30.59375 -15.082031 30.59375 -13.34375 C 30.59375 -11.882812 30.257812 -10.660156 29.59375 -9.671875 C 28.9375 -8.679688 27.894531 -7.894531 26.46875 -7.3125 C 27.84375 -6.75 28.734375 -6.066406 29.140625 -5.265625 C 29.554688 -4.472656 29.8125 -3.601562 29.90625 -2.65625 C 30 -1.8125 30.226562 -0.925781 30.59375 0 Z M 11 -11.09375 L 15.96875 -11.09375 C 17.351562 -11.09375 18.441406 -11.15625 19.234375 -11.28125 C 20.035156 -11.40625 20.625 -11.578125 21 -11.796875 C 21.382812 -12.015625 21.628906 -12.253906 21.734375 -12.515625 C 21.835938 -12.785156 21.890625 -13.0625 21.890625 -13.34375 C 21.890625 -13.613281 21.835938 -13.882812 21.734375 -14.15625 C 21.628906 -14.425781 21.382812 -14.671875 21 -14.890625 C 20.625 -15.109375 20.035156 -15.28125 19.234375 -15.40625 C 18.441406 -15.53125 17.351562 -15.59375 15.96875 -15.59375 L 11 -15.59375 Z M 11 -11.09375 "/></g></g></g><g fill="#3fc742" fill-opacity="1"><g transform="translate(345.675683, 232.506547)"><g><path d="M 13.6875 0.453125 C 10.882812 0.453125 8.625 0.148438 6.90625 -0.453125 C 5.195312 -1.054688 3.894531 -1.882812 3 -2.9375 C 2.101562 -3.988281 1.503906 -5.203125 1.203125 -6.578125 L 10.421875 -6.578125 C 11.109375 -5.597656 12.195312 -5.109375 13.6875 -5.109375 C 15.175781 -5.109375 16.265625 -5.597656 16.953125 -6.578125 C 17.003906 -6.679688 17.03125 -6.769531 17.03125 -6.84375 C 17.03125 -7.101562 16.6875 -7.296875 16 -7.421875 C 15.3125 -7.554688 14.285156 -7.65625 12.921875 -7.71875 C 11.191406 -7.800781 9.378906 -7.984375 7.484375 -8.265625 C 3.265625 -8.921875 1.15625 -10.617188 1.15625 -13.359375 C 1.15625 -13.597656 1.171875 -13.847656 1.203125 -14.109375 C 1.503906 -15.484375 2.101562 -16.695312 3 -17.75 C 3.894531 -18.800781 5.195312 -19.625 6.90625 -20.21875 C 8.625 -20.820312 10.882812 -21.125 13.6875 -21.125 C 16.488281 -21.125 18.742188 -20.820312 20.453125 -20.21875 C 22.171875 -19.625 23.472656 -18.800781 24.359375 -17.75 C 25.253906 -16.695312 25.859375 -15.484375 26.171875 -14.109375 L 16.953125 -14.109375 C 16.265625 -15.085938 15.175781 -15.578125 13.6875 -15.578125 C 12.195312 -15.578125 11.109375 -15.085938 10.421875 -14.109375 C 10.367188 -14.023438 10.34375 -13.953125 10.34375 -13.890625 C 10.34375 -13.660156 10.671875 -13.488281 11.328125 -13.375 C 11.992188 -13.257812 12.96875 -13.164062 14.25 -13.09375 C 15.539062 -13.019531 16.910156 -12.894531 18.359375 -12.71875 C 19.816406 -12.539062 21.175781 -12.238281 22.4375 -11.8125 C 23.707031 -11.382812 24.695312 -10.753906 25.40625 -9.921875 C 25.96875 -9.273438 26.25 -8.457031 26.25 -7.46875 C 26.25 -7.1875 26.222656 -6.890625 26.171875 -6.578125 C 25.859375 -5.203125 25.253906 -3.988281 24.359375 -2.9375 C 23.472656 -1.882812 22.171875 -1.054688 20.453125 -0.453125 C 18.742188 0.148438 16.488281 0.453125 13.6875 0.453125 Z M 13.6875 0.453125 "/></g></g></g></svg>