<svg xmlns="http://www.w3.org/2000/svg" xmlns:xlink="http://www.w3.org/1999/xlink" width="500" zoomAndPan="magnify" viewBox="0 0 375 262.499992" height="350" preserveAspectRatio="xMidYMid meet" version="1.0"><defs><g/><clipPath id="5efcbdfa8f"><path d="M 0.355469 0 L 374.640625 0 L 374.640625 262 L 0.355469 262 Z M 0.355469 0 " clip-rule="nonzero"/></clipPath><clipPath id="dea950b934"><path d="M 154.90625 85 L 220 85 L 220 105.894531 L 154.90625 105.894531 Z M 154.90625 85 " clip-rule="nonzero"/></clipPath></defs><g clip-path="url(#5efcbdfa8f)"><path stroke-linecap="butt" transform="matrix(0.703336, 0, 0, 0.703336, -121.8937, -15.280293)" fill="none" stroke-linejoin="miter" d="M 438.883497 382.628014 C 374.525074 382.628014 327.167094 369.376444 296.798449 342.884411 C 269.945413 319.419246 256.516119 287.478851 256.516119 247.074336 C 256.516119 206.547634 269.945413 174.551701 296.798449 151.080982 C 327.167094 124.588949 374.525074 111.342932 438.883497 111.342932 C 475.53914 111.342932 506.024416 115.458361 530.339326 123.683666 C 554.654236 131.90897 573.737386 143.127818 587.588776 157.340211 C 601.440166 171.558157 610.909541 187.919903 615.991346 206.425449 L 499.126491 206.425449 C 486.907943 189.613838 466.830648 181.205256 438.883497 181.205256 C 412.513649 181.205256 393.097266 188.764094 380.634348 203.887323 C 370.715109 216.105871 365.755489 230.501542 365.755489 247.074336 C 365.755489 263.647129 370.715109 277.981707 380.634348 290.078069 C 393.097266 305.201299 412.513649 312.765691 438.883497 312.765691 C 460.177093 312.765691 476.172283 310.916247 486.880174 307.228467 C 497.588065 303.540687 505.419043 298.731023 510.378662 292.805027 L 467.735931 292.805027 L 467.735931 247.074336 L 615.991346 247.074336 L 615.991346 377.179653 L 570.621656 377.179653 L 561.368884 351.95946 C 532.455357 372.403311 491.628746 382.628014 438.883497 382.628014 Z M 438.883497 382.628014 " stroke="#006402" stroke-width="27.87225" stroke-opacity="1" stroke-miterlimit="4"/></g><g fill="#3fc742" fill-opacity="1"><g transform="translate(48.313722, 249.87755)"><g><path d="M 138.46875 3.953125 C 93.207031 3.953125 59.898438 -5.363281 38.546875 -24 C 19.648438 -40.5 10.203125 -62.957031 10.203125 -91.375 C 10.203125 -119.882812 19.648438 -142.390625 38.546875 -158.890625 C 59.898438 -177.523438 93.207031 -186.84375 138.46875 -186.84375 C 164.25 -186.84375 185.691406 -183.945312 202.796875 -178.15625 C 219.898438 -172.375 233.320312 -164.484375 243.0625 -154.484375 C 252.800781 -144.492188 259.457031 -132.988281 263.03125 -119.96875 L 180.84375 -119.96875 C 172.25 -131.789062 158.125 -137.703125 138.46875 -137.703125 C 119.925781 -137.703125 106.269531 -132.382812 97.5 -121.75 C 90.53125 -113.15625 87.046875 -103.03125 87.046875 -91.375 C 87.046875 -79.71875 90.53125 -69.632812 97.5 -61.125 C 106.269531 -50.488281 119.925781 -45.171875 138.46875 -45.171875 C 153.445312 -45.171875 164.703125 -46.46875 172.234375 -49.0625 C 179.765625 -51.664062 185.269531 -55.050781 188.75 -59.21875 L 158.765625 -59.21875 L 158.765625 -91.375 L 263.03125 -91.375 L 263.03125 0.125 L 231.125 0.125 L 224.625 -17.609375 C 204.28125 -3.234375 175.5625 3.953125 138.46875 3.953125 Z M 138.46875 3.953125 "/></g></g></g><g clip-path="url(#dea950b934)"><path fill="#000000" d="M 187.148438 106.105469 C 169.066406 106.105469 154.90625 101.507812 154.90625 95.636719 C 154.90625 89.773438 169.066406 85.175781 187.148438 85.175781 C 205.226562 85.175781 219.386719 89.773438 219.386719 95.636719 C 219.386719 101.507812 205.226562 106.105469 187.148438 106.105469 Z M 187.148438 88.960938 C 174.199219 88.960938 163.257812 92.019531 163.257812 95.625 C 163.257812 99.242188 174.199219 102.296875 187.148438 102.296875 C 200.09375 102.296875 211.039062 99.242188 211.039062 95.625 C 211.039062 92.019531 200.09375 88.960938 187.148438 88.960938 Z M 187.148438 88.960938 " fill-opacity="1" fill-rule="nonzero"/></g><path fill="#000000" d="M 197.445312 95.625 C 197.445312 95.816406 197.378906 96.003906 197.246094 96.191406 C 197.113281 96.378906 196.917969 96.558594 196.660156 96.738281 C 196.402344 96.914062 196.085938 97.078125 195.707031 97.238281 C 195.332031 97.398438 194.90625 97.542969 194.429688 97.679688 C 193.949219 97.8125 193.429688 97.933594 192.867188 98.039062 C 192.304688 98.144531 191.710938 98.234375 191.085938 98.308594 C 190.464844 98.378906 189.820312 98.433594 189.15625 98.472656 C 188.492188 98.507812 187.824219 98.527344 187.148438 98.527344 C 186.472656 98.527344 185.800781 98.507812 185.136719 98.472656 C 184.476562 98.433594 183.832031 98.378906 183.207031 98.308594 C 182.582031 98.234375 181.988281 98.144531 181.425781 98.039062 C 180.863281 97.933594 180.34375 97.8125 179.867188 97.679688 C 179.386719 97.542969 178.960938 97.398438 178.585938 97.238281 C 178.210938 97.078125 177.894531 96.914062 177.632812 96.738281 C 177.375 96.558594 177.179688 96.378906 177.046875 96.191406 C 176.917969 96.003906 176.851562 95.816406 176.851562 95.625 C 176.851562 95.4375 176.917969 95.246094 177.046875 95.058594 C 177.179688 94.875 177.375 94.691406 177.632812 94.515625 C 177.894531 94.339844 178.210938 94.171875 178.585938 94.015625 C 178.960938 93.855469 179.386719 93.710938 179.867188 93.574219 C 180.34375 93.441406 180.863281 93.320312 181.425781 93.214844 C 181.988281 93.109375 182.582031 93.019531 183.207031 92.945312 C 183.832031 92.871094 184.476562 92.816406 185.136719 92.78125 C 185.800781 92.742188 186.472656 92.726562 187.148438 92.726562 C 187.824219 92.726562 188.492188 92.742188 189.15625 92.78125 C 189.820312 92.816406 190.464844 92.871094 191.085938 92.945312 C 191.710938 93.019531 192.304688 93.109375 192.867188 93.214844 C 193.429688 93.320312 193.949219 93.441406 194.429688 93.574219 C 194.90625 93.710938 195.332031 93.855469 195.707031 94.015625 C 196.085938 94.171875 196.402344 94.339844 196.660156 94.515625 C 196.917969 94.691406 197.113281 94.875 197.246094 95.058594 C 197.378906 95.246094 197.445312 95.4375 197.445312 95.625 Z M 197.445312 95.625 " fill-opacity="1" fill-rule="nonzero"/><path fill="#000000" d="M 187.148438 2.175781 C 174.433594 2.175781 164.117188 12.488281 164.117188 25.203125 C 164.117188 37.917969 187.148438 78.898438 187.148438 78.898438 C 187.148438 78.898438 210.175781 37.917969 210.175781 25.203125 C 210.175781 12.488281 199.871094 2.175781 187.148438 2.175781 Z M 187.148438 33.417969 C 182.609375 33.417969 178.933594 29.742188 178.933594 25.203125 C 178.933594 20.667969 182.609375 16.992188 187.148438 16.992188 C 191.683594 16.992188 195.359375 20.667969 195.359375 25.203125 C 195.359375 29.742188 191.683594 33.417969 187.148438 33.417969 Z M 187.148438 33.417969 " fill-opacity="1" fill-rule="nonzero"/></svg>