<svg xmlns="http://www.w3.org/2000/svg" xmlns:xlink="http://www.w3.org/1999/xlink" width="500" zoomAndPan="magnify" viewBox="0 0 375 74.999997" height="100" preserveAspectRatio="xMidYMid meet" version="1.0"><defs><g/><clipPath id="ba99f475dd"><path d="M 81.117188 47 L 95 47 L 95 51.933594 L 81.117188 51.933594 Z M 81.117188 47 " clip-rule="nonzero"/></clipPath><clipPath id="8aa43e7d57"><path d="M 99 0 L 150.117188 0 L 150.117188 30 L 99 30 Z M 99 0 " clip-rule="nonzero"/></clipPath><clipPath id="11be73b489"><path d="M 155 0 L 172.292969 0 L 172.292969 16 L 155 16 Z M 155 0 " clip-rule="nonzero"/></clipPath></defs><g clip-path="url(#ba99f475dd)"><path fill="#000000" d="M 87.683594 52.140625 C 84 52.140625 81.117188 51.203125 81.117188 50.007812 C 81.117188 48.816406 84 47.878906 87.683594 47.878906 C 91.367188 47.878906 94.25 48.816406 94.25 50.007812 C 94.25 51.203125 91.367188 52.140625 87.683594 52.140625 Z M 87.683594 48.648438 C 85.046875 48.648438 82.820312 49.273438 82.820312 50.007812 C 82.820312 50.742188 85.046875 51.367188 87.683594 51.367188 C 90.320312 51.367188 92.550781 50.742188 92.550781 50.007812 C 92.550781 49.273438 90.320312 48.648438 87.683594 48.648438 Z M 87.683594 48.648438 " fill-opacity="1" fill-rule="nonzero"/></g><path fill="#000000" d="M 89.78125 50.007812 C 89.78125 50.085938 89.726562 50.160156 89.621094 50.234375 C 89.515625 50.304688 89.363281 50.371094 89.167969 50.425781 C 88.96875 50.480469 88.742188 50.523438 88.484375 50.554688 C 88.230469 50.582031 87.960938 50.597656 87.683594 50.597656 C 87.40625 50.597656 87.136719 50.582031 86.882812 50.554688 C 86.625 50.523438 86.398438 50.480469 86.199219 50.425781 C 86.003906 50.371094 85.851562 50.304688 85.746094 50.234375 C 85.640625 50.160156 85.585938 50.085938 85.585938 50.007812 C 85.585938 49.929688 85.640625 49.855469 85.746094 49.78125 C 85.851562 49.707031 86.003906 49.644531 86.199219 49.589844 C 86.398438 49.535156 86.625 49.492188 86.882812 49.460938 C 87.136719 49.429688 87.40625 49.417969 87.683594 49.417969 C 87.960938 49.417969 88.230469 49.429688 88.484375 49.460938 C 88.742188 49.492188 88.96875 49.535156 89.167969 49.589844 C 89.363281 49.644531 89.515625 49.707031 89.621094 49.78125 C 89.726562 49.855469 89.78125 49.929688 89.78125 50.007812 Z M 89.78125 50.007812 " fill-opacity="1" fill-rule="nonzero"/><path fill="#000000" d="M 87.683594 30.976562 C 85.09375 30.976562 82.992188 33.074219 82.992188 35.664062 C 82.992188 38.253906 87.683594 46.601562 87.683594 46.601562 C 87.683594 46.601562 92.375 38.253906 92.375 35.664062 C 92.375 33.074219 90.273438 30.976562 87.683594 30.976562 Z M 87.683594 37.339844 C 86.761719 37.339844 86.011719 36.589844 86.011719 35.664062 C 86.011719 34.742188 86.761719 33.992188 87.683594 33.992188 C 88.609375 33.992188 89.355469 34.742188 89.355469 35.664062 C 89.355469 36.589844 88.609375 37.339844 87.683594 37.339844 Z M 87.683594 37.339844 " fill-opacity="1" fill-rule="nonzero"/><path stroke-linecap="round" transform="matrix(0.175328, 0, 0, 0.175328, 81.117745, -35.72297)" fill="none" stroke-linejoin="round" d="M 82.721003 411.038268 C 84.59249 407.295294 86.441698 403.641439 88.313185 400.098981 " stroke="#333333" stroke-width="6.133" stroke-opacity="1" stroke-miterlimit="4"/><g clip-path="url(#8aa43e7d57)"><path fill="#333333" d="M 99.375 28.378906 C 100.183594 27.050781 100.992188 25.800781 101.796875 24.640625 C 101.882812 24.519531 101.996094 24.445312 102.144531 24.417969 C 102.289062 24.390625 102.421875 24.421875 102.546875 24.503906 C 102.667969 24.589844 102.742188 24.707031 102.769531 24.851562 C 102.792969 24.996094 102.765625 25.132812 102.679688 25.253906 C 101.886719 26.398438 101.089844 27.625 100.292969 28.9375 C 100.214844 29.066406 100.105469 29.148438 99.960938 29.183594 C 99.816406 29.21875 99.683594 29.195312 99.554688 29.117188 C 99.429688 29.042969 99.347656 28.929688 99.3125 28.785156 C 99.277344 28.644531 99.296875 28.507812 99.375 28.378906 Z M 105.9375 19.410156 C 107.023438 18.226562 108.109375 17.199219 109.195312 16.324219 C 109.3125 16.230469 109.445312 16.191406 109.589844 16.207031 C 109.738281 16.222656 109.859375 16.289062 109.953125 16.40625 C 110.046875 16.519531 110.085938 16.652344 110.066406 16.800781 C 110.050781 16.949219 109.988281 17.066406 109.871094 17.160156 C 108.828125 18 107.777344 18.992188 106.726562 20.136719 C 106.625 20.246094 106.503906 20.304688 106.355469 20.308594 C 106.207031 20.316406 106.078125 20.269531 105.96875 20.167969 C 105.859375 20.066406 105.800781 19.945312 105.792969 19.796875 C 105.789062 19.648438 105.835938 19.519531 105.9375 19.410156 Z M 115.164062 13.070312 C 116.28125 12.753906 117.398438 12.601562 118.515625 12.609375 C 118.921875 12.613281 119.324219 12.640625 119.71875 12.6875 C 119.867188 12.703125 119.984375 12.769531 120.078125 12.886719 C 120.167969 13.003906 120.207031 13.136719 120.1875 13.285156 C 120.171875 13.429688 120.105469 13.550781 119.988281 13.640625 C 119.871094 13.734375 119.738281 13.773438 119.589844 13.753906 C 119.234375 13.710938 118.871094 13.6875 118.503906 13.6875 C 117.492188 13.675781 116.476562 13.816406 115.457031 14.105469 C 115.316406 14.148438 115.179688 14.132812 115.046875 14.058594 C 114.917969 13.988281 114.832031 13.878906 114.792969 13.734375 C 114.753906 13.59375 114.769531 13.457031 114.839844 13.328125 C 114.914062 13.199219 115.019531 13.113281 115.164062 13.070312 Z M 125.996094 15.257812 C 126.183594 15.378906 126.464844 15.558594 126.835938 15.800781 C 128.082031 16.605469 129.039062 17.1875 129.710938 17.542969 C 129.84375 17.613281 129.929688 17.71875 129.972656 17.859375 C 130.015625 18 130.003906 18.136719 129.933594 18.269531 C 129.863281 18.402344 129.757812 18.488281 129.617188 18.53125 C 129.476562 18.574219 129.339844 18.5625 129.207031 18.492188 C 128.507812 18.121094 127.523438 17.523438 126.253906 16.703125 C 125.882812 16.464844 125.605469 16.285156 125.417969 16.167969 C 125.292969 16.085938 125.214844 15.976562 125.183594 15.832031 C 125.152344 15.683594 125.175781 15.550781 125.253906 15.425781 C 125.332031 15.300781 125.445312 15.222656 125.589844 15.1875 C 125.734375 15.15625 125.871094 15.179688 125.996094 15.257812 Z M 135.789062 19.261719 C 136.148438 19.277344 136.507812 19.28125 136.878906 19.269531 C 137.917969 19.242188 138.976562 19.109375 140.042969 18.875 C 140.1875 18.84375 140.324219 18.871094 140.449219 18.949219 C 140.574219 19.03125 140.652344 19.144531 140.683594 19.289062 C 140.714844 19.433594 140.691406 19.566406 140.609375 19.691406 C 140.53125 19.816406 140.417969 19.894531 140.273438 19.925781 C 139.136719 20.175781 138.015625 20.3125 136.910156 20.34375 C 136.515625 20.355469 136.125 20.351562 135.742188 20.335938 C 135.59375 20.328125 135.46875 20.273438 135.371094 20.160156 C 135.269531 20.050781 135.222656 19.921875 135.230469 19.773438 C 135.234375 19.628906 135.292969 19.503906 135.402344 19.402344 C 135.511719 19.300781 135.640625 19.253906 135.789062 19.261719 Z M 146.023438 16.527344 C 147.265625 15.808594 148.4375 14.976562 149.535156 14.035156 C 149.648438 13.9375 149.78125 13.894531 149.929688 13.90625 C 150.074219 13.917969 150.199219 13.980469 150.292969 14.09375 C 150.390625 14.207031 150.433594 14.335938 150.421875 14.484375 C 150.410156 14.632812 150.347656 14.753906 150.234375 14.851562 C 149.085938 15.835938 147.859375 16.703125 146.558594 17.457031 C 146.429688 17.53125 146.296875 17.546875 146.152344 17.511719 C 146.007812 17.472656 145.898438 17.386719 145.824219 17.261719 C 145.75 17.132812 145.734375 16.996094 145.773438 16.851562 C 145.808594 16.707031 145.894531 16.601562 146.023438 16.527344 Z M 153.777344 9.195312 C 154.324219 8.339844 154.789062 7.46875 155.171875 6.582031 C 155.347656 6.171875 155.503906 5.761719 155.640625 5.355469 C 155.6875 5.214844 155.78125 5.109375 155.914062 5.042969 C 156.046875 4.976562 156.183594 4.96875 156.324219 5.015625 C 156.464844 5.0625 156.566406 5.152344 156.632812 5.285156 C 156.699219 5.417969 156.707031 5.554688 156.660156 5.699219 C 156.515625 6.132812 156.347656 6.570312 156.15625 7.007812 C 155.753906 7.949219 155.261719 8.871094 154.683594 9.773438 C 154.601562 9.898438 154.492188 9.980469 154.347656 10.011719 C 154.199219 10.042969 154.066406 10.019531 153.941406 9.9375 C 153.816406 9.859375 153.738281 9.746094 153.703125 9.601562 C 153.671875 9.457031 153.695312 9.320312 153.777344 9.195312 Z M 156.304688 -0.960938 C 156.261719 -1.445312 156.175781 -2.160156 156.046875 -3.101562 C 155.914062 -4.097656 155.828125 -4.839844 155.785156 -5.335938 C 155.773438 -5.484375 155.816406 -5.613281 155.914062 -5.726562 C 156.007812 -5.839844 156.132812 -5.902344 156.28125 -5.914062 C 156.425781 -5.925781 156.558594 -5.882812 156.671875 -5.789062 C 156.785156 -5.691406 156.847656 -5.570312 156.859375 -5.421875 C 156.898438 -4.945312 156.980469 -4.222656 157.113281 -3.246094 C 157.242188 -2.289062 157.328125 -1.558594 157.375 -1.054688 C 157.386719 -0.90625 157.347656 -0.777344 157.253906 -0.664062 C 157.15625 -0.550781 157.035156 -0.484375 156.886719 -0.472656 C 156.738281 -0.457031 156.609375 -0.5 156.496094 -0.59375 C 156.382812 -0.691406 156.316406 -0.8125 156.304688 -0.960938 Z M 157.210938 -11.988281 C 157.972656 -13.234375 159.019531 -14.359375 160.347656 -15.355469 C 160.464844 -15.445312 160.597656 -15.476562 160.746094 -15.457031 C 160.894531 -15.4375 161.011719 -15.367188 161.101562 -15.246094 C 161.1875 -15.128906 161.222656 -14.996094 161.203125 -14.847656 C 161.179688 -14.703125 161.109375 -14.585938 160.992188 -14.496094 C 159.773438 -13.582031 158.816406 -12.558594 158.125 -11.425781 C 158.050781 -11.300781 157.9375 -11.21875 157.792969 -11.183594 C 157.648438 -11.148438 157.515625 -11.171875 157.386719 -11.246094 C 157.261719 -11.324219 157.179688 -11.4375 157.144531 -11.582031 C 157.109375 -11.726562 157.132812 -11.859375 157.210938 -11.988281 Z M 166.363281 -18.40625 C 167.671875 -18.859375 169.105469 -19.261719 170.65625 -19.613281 C 170.800781 -19.644531 170.9375 -19.621094 171.0625 -19.542969 C 171.1875 -19.464844 171.265625 -19.351562 171.300781 -19.207031 C 171.332031 -19.0625 171.308594 -18.925781 171.230469 -18.800781 C 171.152344 -18.675781 171.039062 -18.597656 170.894531 -18.5625 C 169.378906 -18.222656 167.988281 -17.832031 166.714844 -17.390625 C 166.574219 -17.339844 166.4375 -17.347656 166.304688 -17.414062 C 166.171875 -17.480469 166.078125 -17.582031 166.03125 -17.722656 C 165.984375 -17.863281 165.992188 -18 166.054688 -18.132812 C 166.121094 -18.265625 166.222656 -18.355469 166.363281 -18.40625 Z M 177.21875 -20.699219 C 178.628906 -20.863281 180.105469 -20.996094 181.65625 -21.101562 C 181.804688 -21.109375 181.933594 -21.066406 182.042969 -20.96875 C 182.15625 -20.871094 182.21875 -20.746094 182.226562 -20.601562 C 182.238281 -20.453125 182.191406 -20.320312 182.09375 -20.210938 C 181.996094 -20.097656 181.875 -20.039062 181.726562 -20.027344 C 180.195312 -19.925781 178.734375 -19.792969 177.34375 -19.632812 C 177.195312 -19.613281 177.0625 -19.652344 176.949219 -19.746094 C 176.832031 -19.835938 176.765625 -19.957031 176.746094 -20.105469 C 176.730469 -20.25 176.769531 -20.382812 176.859375 -20.5 C 176.953125 -20.617188 177.070312 -20.683594 177.21875 -20.699219 Z M 177.21875 -20.699219 " fill-opacity="1" fill-rule="nonzero"/></g><g clip-path="url(#11be73b489)"><path fill="#000000" d="M 168.972656 14.339844 L 168.613281 12.058594 L 169.246094 11.675781 C 169.445312 11.550781 169.511719 11.289062 169.390625 11.085938 L 169.128906 10.65625 C 169.007812 10.453125 168.742188 10.386719 168.539062 10.507812 L 168.382812 10.605469 L 168.167969 9.265625 L 168.5 9.066406 C 168.699219 8.945312 168.765625 8.679688 168.644531 8.480469 L 168.382812 8.046875 C 168.289062 7.890625 168.113281 7.820312 167.941406 7.847656 L 167.785156 6.863281 C 170.40625 5.191406 172.410156 3.675781 171.96875 2.945312 C 171.53125 2.21875 169.253906 3.28125 166.554688 4.820312 L 165.753906 4.222656 C 165.859375 4.085938 165.878906 3.894531 165.785156 3.738281 L 165.523438 3.308594 C 165.402344 3.105469 165.136719 3.039062 164.933594 3.164062 L 164.605469 3.363281 L 163.519531 2.550781 L 163.679688 2.453125 C 163.882812 2.332031 163.945312 2.066406 163.824219 1.867188 L 163.5625 1.433594 C 163.441406 1.230469 163.175781 1.164062 162.976562 1.289062 L 162.34375 1.671875 L 160.492188 0.285156 C 160.183594 0.0546875 159.78125 0.03125 159.476562 0.226562 L 158.808594 0.660156 C 158.660156 0.753906 158.652344 0.972656 158.792969 1.097656 L 160.597656 2.96875 C 160.386719 3.238281 160.238281 3.519531 160.332031 3.675781 C 160.449219 3.867188 160.90625 3.824219 161.320312 3.71875 L 162.496094 4.933594 C 162.320312 5.175781 162.210938 5.414062 162.292969 5.554688 C 162.398438 5.726562 162.78125 5.707031 163.160156 5.625 L 163.894531 6.386719 C 163.796875 6.445312 163.695312 6.503906 163.59375 6.566406 C 161.652344 7.738281 159.855469 9.007812 158.59375 10.042969 L 158.597656 10.039062 C 158.597656 10.039062 158.003906 9.75 157.335938 9.410156 C 156.949219 9.214844 155.941406 8.765625 155.753906 8.910156 L 155.300781 9.265625 C 155.21875 9.328125 155.203125 9.445312 155.265625 9.523438 L 157.101562 11.449219 C 156.855469 11.75 156.742188 11.976562 156.8125 12.089844 C 156.882812 12.207031 157.136719 12.214844 157.515625 12.132812 L 158.363281 14.65625 C 158.40625 14.75 158.515625 14.789062 158.609375 14.746094 L 159.132812 14.511719 C 159.347656 14.414062 159.421875 13.308594 159.429688 12.878906 C 159.441406 12.128906 159.464844 11.464844 159.464844 11.464844 L 159.460938 11.46875 C 160.964844 10.835938 162.925781 9.839844 164.867188 8.667969 C 164.96875 8.609375 165.070312 8.546875 165.167969 8.484375 L 165.5 9.492188 C 165.246094 9.789062 165.050781 10.117188 165.15625 10.289062 C 165.238281 10.429688 165.503906 10.441406 165.796875 10.402344 L 166.324219 12.003906 C 166.035156 12.324219 165.785156 12.707031 165.898438 12.898438 C 165.996094 13.054688 166.3125 13.054688 166.652344 12.992188 L 167.464844 15.464844 C 167.507812 15.648438 167.707031 15.742188 167.859375 15.660156 L 168.554688 15.265625 C 168.867188 15.085938 169.035156 14.71875 168.972656 14.339844 Z M 168.972656 14.339844 " fill-opacity="1" fill-rule="nonzero"/></g><path stroke-linecap="round" transform="matrix(0.1627, 0, 0, 0.1627, 52.378354, 0.0904399)" fill="none" stroke-linejoin="round" d="M 611.056054 84.988141 C 615.065555 84.940123 619.171091 84.916114 623.348654 84.916114 " stroke="#333333" stroke-width="6.133" stroke-opacity="1" stroke-miterlimit="4"/><path stroke-linecap="butt" transform="matrix(0.75, 0, 0, 0.75, -14.651261, 41.613483)" fill="none" stroke-linejoin="miter" d="M 69.238146 34.525776 C 63.206895 34.525776 58.764187 33.286192 55.920437 30.801817 C 53.399603 28.6039 52.144395 25.609108 52.144395 21.817441 C 52.144395 18.020566 53.399603 15.020566 55.920437 12.822649 C 58.764187 10.338274 63.206895 9.093482 69.238146 9.093482 C 72.675646 9.093482 75.535021 9.478899 77.811063 10.249732 C 80.092313 11.020565 81.88398 12.072649 83.180855 13.405982 C 84.477731 14.739316 85.368356 16.275774 85.842314 18.010149 L 74.889188 18.010149 C 73.743355 16.432024 71.857938 15.645566 69.238146 15.645566 C 66.764187 15.645566 64.946479 16.353899 63.779812 17.770566 C 62.84752 18.916399 62.383979 20.265358 62.383979 21.817441 C 62.383979 23.374733 62.84752 24.718483 63.779812 25.8539 C 64.946479 27.270567 66.764187 27.9789 69.238146 27.9789 C 71.232938 27.9789 72.732938 27.807025 73.738146 27.458067 C 74.743355 27.114317 75.47773 26.661192 75.941271 26.109108 L 71.941271 26.109108 L 71.941271 21.817441 L 85.842314 21.817441 L 85.842314 34.015359 L 81.587105 34.015359 L 80.722522 31.650776 C 78.00898 33.567442 74.186063 34.525776 69.238146 34.525776 Z M 118.040233 33.999734 L 89.545439 33.999734 L 89.545439 9.588274 L 99.790232 9.588274 L 99.790232 27.963275 L 118.040233 27.963275 Z M 136.123568 34.525776 C 130.092318 34.525776 125.649609 33.286192 122.805859 30.801817 C 120.285025 28.6039 119.029817 25.6039 119.029817 21.801816 C 119.029817 18.015358 120.285025 15.020566 122.805859 12.822649 C 125.649609 10.338274 130.092318 9.093482 136.123568 9.093482 C 142.160027 9.093482 146.597527 10.338274 149.446486 12.822649 C 151.962111 15.020566 153.222528 18.015358 153.222528 21.801816 C 153.222528 25.6039 151.962111 28.6039 149.446486 30.801817 C 146.597527 33.286192 142.160027 34.525776 136.123568 34.525776 Z M 136.123568 27.9789 C 138.597527 27.9789 140.410027 27.270567 141.566277 25.8539 C 142.498569 24.708067 142.96211 23.3539 142.96211 21.801816 C 142.96211 20.249733 142.498569 18.905983 141.566277 17.770566 C 140.410027 16.343483 138.597527 15.629941 136.123568 15.629941 C 133.64961 15.629941 131.831901 16.343483 130.665234 17.770566 C 129.732943 18.905983 129.269401 20.249733 129.269401 21.801816 C 129.269401 23.3539 129.732943 24.708067 130.665234 25.8539 C 131.831901 27.270567 133.64961 27.9789 136.123568 27.9789 Z M 173.748571 33.999734 L 156.243361 33.999734 L 156.243361 9.603899 L 174.123571 9.603899 C 177.300655 9.603899 179.915238 9.749732 181.967322 10.041399 C 184.019405 10.327857 185.602739 10.780982 186.712114 11.400774 C 187.826697 12.020566 188.581906 12.801816 188.977739 13.754941 C 189.373572 14.708066 189.571489 15.848691 189.571489 17.176816 C 189.540239 18.218483 189.253781 19.083066 188.712114 19.770566 C 188.175656 20.458066 187.545447 20.968483 186.826697 21.301816 C 186.102739 21.63515 185.47253 21.801816 184.925655 21.801816 C 185.462114 21.801816 186.081905 21.905983 186.800656 22.119525 C 187.514197 22.327858 188.206906 22.629941 188.883989 23.025775 C 189.555864 23.426817 190.118364 23.905983 190.566281 24.473692 C 191.014198 25.0414 191.238156 25.687233 191.238156 26.411192 C 191.238156 27.364317 191.128781 28.239317 190.904823 29.030984 C 190.686073 29.827859 190.243364 30.530984 189.581906 31.140359 C 188.915239 31.754942 187.936072 32.275776 186.644406 32.697651 C 185.352739 33.124734 183.66003 33.447651 181.56628 33.666401 C 179.477738 33.890359 176.868363 33.999734 173.748571 33.999734 Z M 173.170446 19.708066 C 174.670446 19.708066 175.826696 19.63515 176.649613 19.489316 C 177.47253 19.343483 178.045446 19.119524 178.363155 18.817441 C 178.680863 18.515358 178.837113 18.135149 178.837113 17.666399 C 178.837113 17.192441 178.680863 16.801816 178.363155 16.504941 C 178.045446 16.202858 177.47253 15.984108 176.649613 15.838274 C 175.826696 15.697649 174.670446 15.629941 173.170446 15.629941 L 166.488154 15.629941 L 166.488154 19.708066 Z M 173.170446 27.9789 C 174.701696 27.9789 175.946488 27.937234 176.899613 27.859109 C 177.852738 27.780984 178.550655 27.598692 178.988155 27.312233 C 179.430863 27.030983 179.654822 26.57265 179.654822 25.937233 C 179.654822 25.301817 179.430863 24.838275 178.988155 24.551817 C 178.550655 24.26015 177.852738 24.077858 176.899613 24.004942 C 175.946488 23.932025 174.701696 23.895567 173.170446 23.895567 L 166.488154 23.895567 L 166.488154 27.9789 Z M 223.660034 33.999734 L 194.264198 33.999734 L 194.264198 9.588274 L 222.316283 9.588274 L 222.316283 15.629941 L 204.503782 15.629941 L 204.503782 19.452858 L 219.561075 19.452858 L 219.561075 24.150775 L 204.503782 24.150775 L 204.503782 27.963275 L 223.660034 27.963275 Z M 244.785035 33.999734 L 234.545451 33.999734 L 234.545451 15.629941 L 224.98295 15.629941 L 224.98295 9.588274 L 254.347536 9.588274 L 254.347536 15.629941 L 244.785035 15.629941 Z M 290.357956 33.999734 L 280.680872 33.999734 C 280.238163 33.385151 279.925663 32.603901 279.743371 31.650776 C 279.587121 30.9164 279.347538 30.192442 279.02983 29.484109 C 278.712121 28.775775 278.165246 28.187234 277.389205 27.713275 C 276.607955 27.244525 275.456913 26.989317 273.925663 26.958067 L 267.27462 26.958067 L 267.27462 33.999734 L 257.035036 33.999734 L 257.035036 9.588274 L 273.686079 9.588274 C 277.670455 9.588274 280.878788 9.885149 283.326705 10.478899 C 285.769414 11.077857 287.550664 12.010149 288.675664 13.286191 C 289.795456 14.562232 290.357956 16.228899 290.357956 18.280983 C 290.357956 19.994525 289.972539 21.432025 289.191289 22.6039 C 288.415247 23.770567 287.191289 24.692442 285.508997 25.374733 C 287.133997 26.046608 288.18608 26.848692 288.665247 27.780984 C 289.149622 28.718484 289.446497 29.744525 289.561081 30.869525 C 289.670456 31.869526 289.941289 32.911192 290.357956 33.999734 Z M 267.27462 20.937233 L 273.123579 20.9164 C 274.758996 20.9164 276.045454 20.843483 276.988163 20.69765 C 277.930871 20.551816 278.62358 20.348691 279.071496 20.093483 C 279.519413 19.838275 279.805871 19.551816 279.930871 19.244525 C 280.055871 18.932024 280.118371 18.609108 280.118371 18.280983 C 280.118371 17.952858 280.055871 17.629941 279.930871 17.312233 C 279.805871 16.994524 279.519413 16.708066 279.071496 16.452858 C 278.62358 16.197649 277.930871 15.994524 276.988163 15.848691 C 276.045454 15.702858 274.758996 15.629941 273.123579 15.629941 L 267.27462 15.629941 Z M 309.118374 34.525776 C 303.087123 34.525776 298.644415 33.286192 295.800664 30.801817 C 293.279831 28.6039 292.024622 25.6039 292.024622 21.801816 C 292.024622 18.015358 293.279831 15.020566 295.800664 12.822649 C 298.644415 10.338274 303.087123 9.093482 309.118374 9.093482 C 315.154833 9.093482 319.592333 10.338274 322.441292 12.822649 C 324.956917 15.020566 326.217334 18.015358 326.217334 21.801816 C 326.217334 25.6039 324.956917 28.6039 322.441292 30.801817 C 319.592333 33.286192 315.154833 34.525776 309.118374 34.525776 Z M 309.118374 27.9789 C 311.592332 27.9789 313.404833 27.270567 314.561083 25.8539 C 315.493374 24.708067 315.956916 23.3539 315.956916 21.801816 C 315.956916 20.249733 315.493374 18.905983 314.561083 17.770566 C 313.404833 16.343483 311.592332 15.629941 309.118374 15.629941 C 306.644415 15.629941 304.826707 16.343483 303.66004 17.770566 C 302.727748 18.905983 302.264207 20.249733 302.264207 21.801816 C 302.264207 23.3539 302.727748 24.708067 303.66004 25.8539 C 304.826707 27.270567 306.644415 27.9789 309.118374 27.9789 Z M 347.342335 33.999734 L 337.102751 33.999734 L 337.102751 15.629941 L 327.54025 15.629941 L 327.54025 9.588274 L 356.899628 9.588274 L 356.899628 15.629941 L 347.342335 15.629941 Z M 377.691296 33.999734 L 367.446504 33.999734 L 367.446504 15.629941 L 357.889211 15.629941 L 357.889211 9.588274 L 387.248589 9.588274 L 387.248589 15.629941 L 377.691296 15.629941 Z M 419.331925 33.999734 L 389.936089 33.999734 L 389.936089 9.588274 L 417.988174 9.588274 L 417.988174 15.629941 L 400.175673 15.629941 L 400.175673 19.452858 L 415.232966 19.452858 L 415.232966 24.150775 L 400.175673 24.150775 L 400.175673 27.963275 L 419.331925 27.963275 Z M 455.686094 33.999734 L 446.003802 33.999734 C 445.561093 33.385151 445.248593 32.603901 445.066302 31.650776 C 444.910052 30.9164 444.670468 30.192442 444.35276 29.484109 C 444.035052 28.775775 443.488177 28.187234 442.712135 27.713275 C 441.936093 27.244525 440.779843 26.989317 439.248593 26.958067 L 432.597551 26.958067 L 432.597551 33.999734 L 422.357966 33.999734 L 422.357966 9.588274 L 439.014218 9.588274 C 442.993385 9.588274 446.206927 9.885149 448.649635 10.478899 C 451.092344 11.077857 452.878802 12.010149 453.998594 13.286191 C 455.123594 14.562232 455.686094 16.228899 455.686094 18.280983 C 455.686094 19.994525 455.295469 21.432025 454.519427 22.6039 C 453.743386 23.770567 452.514219 24.692442 450.837135 25.374733 C 452.456927 26.046608 453.509011 26.848692 453.993386 27.780984 C 454.472552 28.718484 454.769427 29.744525 454.884011 30.869525 C 454.998594 31.869526 455.264219 32.911192 455.686094 33.999734 Z M 432.597551 20.937233 L 438.451718 20.9164 C 440.081926 20.9164 441.373593 20.843483 442.311093 20.69765 C 443.253801 20.551816 443.94651 20.348691 444.394427 20.093483 C 444.842343 19.838275 445.128802 19.551816 445.253802 19.244525 C 445.378802 18.932024 445.441302 18.609108 445.441302 18.280983 C 445.441302 17.952858 445.378802 17.629941 445.253802 17.312233 C 445.128802 16.994524 444.842343 16.708066 444.394427 16.452858 C 443.94651 16.197649 443.253801 15.994524 442.311093 15.848691 C 441.373593 15.702858 440.081926 15.629941 438.451718 15.629941 L 432.597551 15.629941 Z M 472.113179 34.525776 C 468.816304 34.525776 466.154845 34.171609 464.134012 33.463276 C 462.118386 32.754942 460.581928 31.780984 459.524636 30.536192 C 458.472553 29.296609 457.764219 27.864317 457.399636 26.244525 L 468.269429 26.244525 C 469.07672 27.400775 470.35797 27.9789 472.113179 27.9789 C 473.873596 27.9789 475.154846 27.400775 475.956929 26.244525 C 476.024637 26.129942 476.061096 26.025775 476.061096 25.937233 C 476.061096 25.629942 475.654846 25.400775 474.842346 25.249733 C 474.035054 25.093483 472.821512 24.9789 471.212137 24.900775 C 469.180887 24.807025 467.050678 24.593483 464.816303 24.249733 C 459.837136 23.4789 457.347553 21.4789 457.347553 18.249733 C 457.347553 17.973691 457.363178 17.687233 457.399636 17.379941 C 457.764219 15.760149 458.472553 14.327857 459.524636 13.083066 C 460.581928 11.843482 462.118386 10.864315 464.134012 10.155982 C 466.154845 9.447649 468.816304 9.093482 472.113179 9.093482 C 475.415262 9.093482 478.071513 9.447649 480.092346 10.155982 C 482.11318 10.864315 483.649638 11.843482 484.701722 13.083066 C 485.759013 14.327857 486.467347 15.760149 486.826722 17.379941 L 475.956929 17.379941 C 475.154846 16.223691 473.873596 15.645566 472.113179 15.645566 C 470.35797 15.645566 469.07672 16.223691 468.269429 17.379941 C 468.212137 17.468483 468.186095 17.557024 468.186095 17.635149 C 468.186095 17.905983 468.571512 18.109108 469.347554 18.239316 C 470.128804 18.369524 471.269429 18.478899 472.785054 18.572649 C 474.300679 18.661191 475.915262 18.807024 477.623596 19.010149 C 479.337138 19.218483 480.941305 19.57265 482.430888 20.077858 C 483.920471 20.583066 485.087138 21.327858 485.92568 22.312233 C 486.587138 23.07265 486.915263 24.036192 486.915263 25.202858 C 486.915263 25.536192 486.884013 25.879942 486.826722 26.244525 C 486.467347 27.864317 485.759013 29.296609 484.701722 30.536192 C 483.649638 31.780984 482.11318 32.754942 480.092346 33.463276 C 478.071513 34.171609 475.415262 34.525776 472.113179 34.525776 Z M 472.113179 34.525776 " stroke="#006402" stroke-width="2.613488" stroke-opacity="1" stroke-miterlimit="4"/><g fill="#3fc742" fill-opacity="1"><g transform="translate(23.434673, 67.113481)"><g><path d="M 13.84375 0.390625 C 9.3125 0.390625 5.984375 -0.535156 3.859375 -2.390625 C 1.960938 -4.046875 1.015625 -6.296875 1.015625 -9.140625 C 1.015625 -11.984375 1.960938 -14.226562 3.859375 -15.875 C 5.984375 -17.738281 9.3125 -18.671875 13.84375 -18.671875 C 16.414062 -18.671875 18.554688 -18.378906 20.265625 -17.796875 C 21.972656 -17.222656 23.3125 -16.4375 24.28125 -15.4375 C 25.257812 -14.4375 25.929688 -13.285156 26.296875 -11.984375 L 18.078125 -11.984375 C 17.210938 -13.171875 15.800781 -13.765625 13.84375 -13.765625 C 11.988281 -13.765625 10.625 -13.234375 9.75 -12.171875 C 9.050781 -11.304688 8.703125 -10.296875 8.703125 -9.140625 C 8.703125 -7.972656 9.050781 -6.960938 9.75 -6.109375 C 10.625 -5.046875 11.988281 -4.515625 13.84375 -4.515625 C 15.332031 -4.515625 16.453125 -4.644531 17.203125 -4.90625 C 17.960938 -5.164062 18.515625 -5.503906 18.859375 -5.921875 L 15.875 -5.921875 L 15.875 -9.140625 L 26.296875 -9.140625 L 26.296875 0.015625 L 23.109375 0.015625 L 22.453125 -1.765625 C 20.421875 -0.328125 17.550781 0.390625 13.84375 0.390625 Z M 13.84375 0.390625 "/></g></g></g><g fill="#3fc742" fill-opacity="1"><g transform="translate(50.468064, 67.113481)"><g><path d="M 23.40625 0 L 2.046875 0 L 2.046875 -18.3125 L 9.71875 -18.3125 L 9.71875 -4.53125 L 23.40625 -4.53125 Z M 23.40625 0 "/></g></g></g><g fill="#3fc742" fill-opacity="1"><g transform="translate(73.598598, 67.113481)"><g><path d="M 13.84375 0.390625 C 9.3125 0.390625 5.984375 -0.535156 3.859375 -2.390625 C 1.960938 -4.046875 1.015625 -6.296875 1.015625 -9.140625 C 1.015625 -11.984375 1.960938 -14.226562 3.859375 -15.875 C 5.984375 -17.738281 9.3125 -18.671875 13.84375 -18.671875 C 18.363281 -18.671875 21.691406 -17.738281 23.828125 -15.875 C 25.710938 -14.226562 26.65625 -11.984375 26.65625 -9.140625 C 26.65625 -6.296875 25.710938 -4.046875 23.828125 -2.390625 C 21.691406 -0.535156 18.363281 0.390625 13.84375 0.390625 Z M 13.84375 -4.515625 C 15.695312 -4.515625 17.054688 -5.046875 17.921875 -6.109375 C 18.617188 -6.972656 18.96875 -7.984375 18.96875 -9.140625 C 18.96875 -10.304688 18.617188 -11.316406 17.921875 -12.171875 C 17.054688 -13.242188 15.695312 -13.78125 13.84375 -13.78125 C 11.988281 -13.78125 10.625 -13.242188 9.75 -12.171875 C 9.050781 -11.316406 8.703125 -10.304688 8.703125 -9.140625 C 8.703125 -7.984375 9.050781 -6.972656 9.75 -6.109375 C 10.625 -5.046875 11.988281 -4.515625 13.84375 -4.515625 Z M 13.84375 -4.515625 "/></g></g></g><g fill="#3fc742" fill-opacity="1"><g transform="translate(100.491685, 67.113481)"><g><path d="M 15.171875 0 L 2.046875 0 L 2.046875 -18.296875 L 15.453125 -18.296875 C 17.828125 -18.296875 19.785156 -18.1875 21.328125 -17.96875 C 22.867188 -17.75 24.054688 -17.40625 24.890625 -16.9375 C 25.722656 -16.476562 26.285156 -15.890625 26.578125 -15.171875 C 26.878906 -14.460938 27.03125 -13.609375 27.03125 -12.609375 C 27.007812 -11.828125 26.796875 -11.179688 26.390625 -10.671875 C 25.984375 -10.160156 25.507812 -9.773438 24.96875 -9.515625 C 24.425781 -9.265625 23.953125 -9.140625 23.546875 -9.140625 C 23.941406 -9.140625 24.40625 -9.0625 24.9375 -8.90625 C 25.476562 -8.75 26 -8.519531 26.5 -8.21875 C 27.007812 -7.925781 27.429688 -7.566406 27.765625 -7.140625 C 28.109375 -6.710938 28.28125 -6.226562 28.28125 -5.6875 C 28.28125 -4.976562 28.195312 -4.320312 28.03125 -3.71875 C 27.863281 -3.125 27.53125 -2.597656 27.03125 -2.140625 C 26.539062 -1.679688 25.804688 -1.289062 24.828125 -0.96875 C 23.859375 -0.65625 22.585938 -0.414062 21.015625 -0.25 C 19.453125 -0.0820312 17.503906 0 15.171875 0 Z M 14.734375 -10.71875 C 15.859375 -10.71875 16.726562 -10.769531 17.34375 -10.875 C 17.957031 -10.988281 18.382812 -11.15625 18.625 -11.375 C 18.863281 -11.601562 18.984375 -11.894531 18.984375 -12.25 C 18.984375 -12.601562 18.863281 -12.890625 18.625 -13.109375 C 18.382812 -13.335938 17.957031 -13.503906 17.34375 -13.609375 C 16.726562 -13.722656 15.859375 -13.78125 14.734375 -13.78125 L 9.71875 -13.78125 L 9.71875 -10.71875 Z M 14.734375 -4.515625 C 15.878906 -4.515625 16.804688 -4.539062 17.515625 -4.59375 C 18.234375 -4.65625 18.757812 -4.789062 19.09375 -5 C 19.425781 -5.21875 19.59375 -5.566406 19.59375 -6.046875 C 19.59375 -6.523438 19.425781 -6.867188 19.09375 -7.078125 C 18.757812 -7.296875 18.234375 -7.429688 17.515625 -7.484375 C 16.804688 -7.546875 15.878906 -7.578125 14.734375 -7.578125 L 9.71875 -7.578125 L 9.71875 -4.515625 Z M 14.734375 -4.515625 "/></g></g></g><g fill="#3fc742" fill-opacity="1"><g transform="translate(129.004592, 67.113481)"><g><path d="M 24.078125 0 L 2.046875 0 L 2.046875 -18.3125 L 23.078125 -18.3125 L 23.078125 -13.78125 L 9.71875 -13.78125 L 9.71875 -10.90625 L 21.015625 -10.90625 L 21.015625 -7.390625 L 9.71875 -7.390625 L 9.71875 -4.53125 L 24.078125 -4.53125 Z M 24.078125 0 "/></g></g></g><g fill="#3fc742" fill-opacity="1"><g transform="translate(153.321282, 67.113481)"><g><path d="M 15.609375 0 L 7.9375 0 L 7.9375 -13.78125 L 0.765625 -13.78125 L 0.765625 -18.3125 L 22.78125 -18.3125 L 22.78125 -13.78125 L 15.609375 -13.78125 Z M 15.609375 0 "/></g></g></g><g fill="#3fc742" fill-opacity="1"><g transform="translate(176.08193, 67.113481)"><g><path d="M 27.03125 0 L 19.765625 0 C 19.441406 -0.457031 19.210938 -1.046875 19.078125 -1.765625 C 18.953125 -2.316406 18.769531 -2.859375 18.53125 -3.390625 C 18.289062 -3.921875 17.878906 -4.363281 17.296875 -4.71875 C 16.722656 -5.070312 15.859375 -5.257812 14.703125 -5.28125 L 9.71875 -5.28125 L 9.71875 0 L 2.046875 0 L 2.046875 -18.3125 L 14.53125 -18.3125 C 17.507812 -18.3125 19.914062 -18.085938 21.75 -17.640625 C 23.582031 -17.191406 24.921875 -16.488281 25.765625 -15.53125 C 26.609375 -14.570312 27.03125 -13.320312 27.03125 -11.78125 C 27.03125 -10.5 26.738281 -9.421875 26.15625 -8.546875 C 25.570312 -7.671875 24.648438 -6.976562 23.390625 -6.46875 C 24.609375 -5.96875 25.394531 -5.363281 25.75 -4.65625 C 26.113281 -3.957031 26.34375 -3.1875 26.4375 -2.34375 C 26.519531 -1.59375 26.71875 -0.8125 27.03125 0 Z M 9.71875 -9.796875 L 14.109375 -9.8125 C 15.335938 -9.8125 16.300781 -9.863281 17 -9.96875 C 17.707031 -10.082031 18.226562 -10.234375 18.5625 -10.421875 C 18.90625 -10.617188 19.117188 -10.832031 19.203125 -11.0625 C 19.296875 -11.300781 19.34375 -11.539062 19.34375 -11.78125 C 19.34375 -12.03125 19.296875 -12.273438 19.203125 -12.515625 C 19.117188 -12.753906 18.90625 -12.96875 18.5625 -13.15625 C 18.226562 -13.34375 17.707031 -13.492188 17 -13.609375 C 16.300781 -13.722656 15.335938 -13.78125 14.109375 -13.78125 L 9.71875 -13.78125 Z M 9.71875 -9.796875 "/></g></g></g><g fill="#3fc742" fill-opacity="1"><g transform="translate(203.344902, 67.113481)"><g><path d="M 13.84375 0.390625 C 9.3125 0.390625 5.984375 -0.535156 3.859375 -2.390625 C 1.960938 -4.046875 1.015625 -6.296875 1.015625 -9.140625 C 1.015625 -11.984375 1.960938 -14.226562 3.859375 -15.875 C 5.984375 -17.738281 9.3125 -18.671875 13.84375 -18.671875 C 18.363281 -18.671875 21.691406 -17.738281 23.828125 -15.875 C 25.710938 -14.226562 26.65625 -11.984375 26.65625 -9.140625 C 26.65625 -6.296875 25.710938 -4.046875 23.828125 -2.390625 C 21.691406 -0.535156 18.363281 0.390625 13.84375 0.390625 Z M 13.84375 -4.515625 C 15.695312 -4.515625 17.054688 -5.046875 17.921875 -6.109375 C 18.617188 -6.972656 18.96875 -7.984375 18.96875 -9.140625 C 18.96875 -10.304688 18.617188 -11.316406 17.921875 -12.171875 C 17.054688 -13.242188 15.695312 -13.78125 13.84375 -13.78125 C 11.988281 -13.78125 10.625 -13.242188 9.75 -12.171875 C 9.050781 -11.316406 8.703125 -10.304688 8.703125 -9.140625 C 8.703125 -7.984375 9.050781 -6.972656 9.75 -6.109375 C 10.625 -5.046875 11.988281 -4.515625 13.84375 -4.515625 Z M 13.84375 -4.515625 "/></g></g></g><g fill="#3fc742" fill-opacity="1"><g transform="translate(230.238001, 67.113481)"><g><path d="M 15.609375 0 L 7.9375 0 L 7.9375 -13.78125 L 0.765625 -13.78125 L 0.765625 -18.3125 L 22.78125 -18.3125 L 22.78125 -13.78125 L 15.609375 -13.78125 Z M 15.609375 0 "/></g></g></g><g fill="#3fc742" fill-opacity="1"><g transform="translate(252.998649, 67.113481)"><g><path d="M 15.609375 0 L 7.9375 0 L 7.9375 -13.78125 L 0.765625 -13.78125 L 0.765625 -18.3125 L 22.78125 -18.3125 L 22.78125 -13.78125 L 15.609375 -13.78125 Z M 15.609375 0 "/></g></g></g><g fill="#3fc742" fill-opacity="1"><g transform="translate(275.759298, 67.113481)"><g><path d="M 24.078125 0 L 2.046875 0 L 2.046875 -18.3125 L 23.078125 -18.3125 L 23.078125 -13.78125 L 9.71875 -13.78125 L 9.71875 -10.90625 L 21.015625 -10.90625 L 21.015625 -7.390625 L 9.71875 -7.390625 L 9.71875 -4.53125 L 24.078125 -4.53125 Z M 24.078125 0 "/></g></g></g><g fill="#3fc742" fill-opacity="1"><g transform="translate(300.075977, 67.113481)"><g><path d="M 27.03125 0 L 19.765625 0 C 19.441406 -0.457031 19.210938 -1.046875 19.078125 -1.765625 C 18.953125 -2.316406 18.769531 -2.859375 18.53125 -3.390625 C 18.289062 -3.921875 17.878906 -4.363281 17.296875 -4.71875 C 16.722656 -5.070312 15.859375 -5.257812 14.703125 -5.28125 L 9.71875 -5.28125 L 9.71875 0 L 2.046875 0 L 2.046875 -18.3125 L 14.53125 -18.3125 C 17.507812 -18.3125 19.914062 -18.085938 21.75 -17.640625 C 23.582031 -17.191406 24.921875 -16.488281 25.765625 -15.53125 C 26.609375 -14.570312 27.03125 -13.320312 27.03125 -11.78125 C 27.03125 -10.5 26.738281 -9.421875 26.15625 -8.546875 C 25.570312 -7.671875 24.648438 -6.976562 23.390625 -6.46875 C 24.609375 -5.96875 25.394531 -5.363281 25.75 -4.65625 C 26.113281 -3.957031 26.34375 -3.1875 26.4375 -2.34375 C 26.519531 -1.59375 26.71875 -0.8125 27.03125 0 Z M 9.71875 -9.796875 L 14.109375 -9.8125 C 15.335938 -9.8125 16.300781 -9.863281 17 -9.96875 C 17.707031 -10.082031 18.226562 -10.234375 18.5625 -10.421875 C 18.90625 -10.617188 19.117188 -10.832031 19.203125 -11.0625 C 19.296875 -11.300781 19.34375 -11.539062 19.34375 -11.78125 C 19.34375 -12.03125 19.296875 -12.273438 19.203125 -12.515625 C 19.117188 -12.753906 18.90625 -12.96875 18.5625 -13.15625 C 18.226562 -13.34375 17.707031 -13.492188 17 -13.609375 C 16.300781 -13.722656 15.335938 -13.78125 14.109375 -13.78125 L 9.71875 -13.78125 Z M 9.71875 -9.796875 "/></g></g></g><g fill="#3fc742" fill-opacity="1"><g transform="translate(327.33896, 67.113481)"><g><path d="M 12.09375 0.390625 C 9.613281 0.390625 7.617188 0.125 6.109375 -0.40625 C 4.597656 -0.9375 3.445312 -1.664062 2.65625 -2.59375 C 1.863281 -3.53125 1.332031 -4.601562 1.0625 -5.8125 L 9.203125 -5.8125 C 9.804688 -4.945312 10.769531 -4.515625 12.09375 -4.515625 C 13.40625 -4.515625 14.363281 -4.945312 14.96875 -5.8125 C 15.019531 -5.894531 15.046875 -5.972656 15.046875 -6.046875 C 15.046875 -6.273438 14.742188 -6.445312 14.140625 -6.5625 C 13.535156 -6.675781 12.628906 -6.765625 11.421875 -6.828125 C 9.898438 -6.890625 8.300781 -7.050781 6.625 -7.3125 C 2.882812 -7.882812 1.015625 -9.382812 1.015625 -11.8125 C 1.015625 -12.019531 1.03125 -12.238281 1.0625 -12.46875 C 1.332031 -13.675781 1.863281 -14.742188 2.65625 -15.671875 C 3.445312 -16.609375 4.597656 -17.34375 6.109375 -17.875 C 7.617188 -18.40625 9.613281 -18.671875 12.09375 -18.671875 C 14.570312 -18.671875 16.566406 -18.40625 18.078125 -17.875 C 19.585938 -17.34375 20.738281 -16.609375 21.53125 -15.671875 C 22.320312 -14.742188 22.851562 -13.675781 23.125 -12.46875 L 14.96875 -12.46875 C 14.363281 -13.332031 13.40625 -13.765625 12.09375 -13.765625 C 10.769531 -13.765625 9.804688 -13.332031 9.203125 -12.46875 C 9.160156 -12.394531 9.140625 -12.328125 9.140625 -12.265625 C 9.140625 -12.066406 9.429688 -11.914062 10.015625 -11.8125 C 10.597656 -11.71875 11.457031 -11.632812 12.59375 -11.5625 C 13.726562 -11.5 14.9375 -11.390625 16.21875 -11.234375 C 17.507812 -11.085938 18.710938 -10.820312 19.828125 -10.4375 C 20.941406 -10.0625 21.816406 -9.503906 22.453125 -8.765625 C 22.941406 -8.191406 23.1875 -7.46875 23.1875 -6.59375 C 23.1875 -6.34375 23.164062 -6.082031 23.125 -5.8125 C 22.851562 -4.601562 22.320312 -3.53125 21.53125 -2.59375 C 20.738281 -1.664062 19.585938 -0.9375 18.078125 -0.40625 C 16.566406 0.125 14.570312 0.390625 12.09375 0.390625 Z M 12.09375 0.390625 "/></g></g></g></svg>